<?xml version="1.0" standalone="no"?>
<!DOCTYPE svg PUBLIC "-//W3C//DTD SVG 20010904//EN"
 "http://www.w3.org/TR/2001/REC-SVG-20010904/DTD/svg10.dtd">
<svg version="1.0" xmlns="http://www.w3.org/2000/svg"
 width="480.000000pt" height="480.000000pt" viewBox="0 0 480.000000 480.000000"
 preserveAspectRatio="xMidYMid meet">
<metadata>
Created by potrace 1.11, written by Peter Selinger 2001-2013
</metadata>
<g transform="translate(0.000000,480.000000) scale(0.100000,-0.100000)"
fill="#000000" stroke="none">
<path d="M2446 4518 c6 -9 -36 -32 -44 -24 -3 3 0 6 7 6 7 0 10 4 6 9 -7 12
-50 -10 -77 -39 -17 -18 -18 -24 -7 -31 12 -7 12 -9 0 -9 -7 0 -11 -6 -7 -15
3 -8 2 -15 -2 -15 -23 0 -37 -50 -37 -132 0 -48 2 -83 3 -78 2 6 8 10 14 10 6
0 8 -15 4 -37 -4 -28 -3 -31 3 -13 11 33 31 141 31 168 0 18 12 25 67 42 37
11 94 24 126 27 51 5 60 3 83 -18 16 -15 23 -31 20 -43 -3 -10 2 -38 10 -62 8
-24 15 -68 15 -97 1 -39 5 -54 15 -54 10 0 14 11 12 36 -2 21 1 35 7 34 10 -1
39 179 38 234 -1 26 -33 72 -50 73 -7 0 -13 5 -13 10 0 6 -24 10 -54 10 -30 0
-58 5 -61 10 -4 6 -31 10 -60 8 -29 -2 -51 -6 -49 -10z"/>
<path d="M2365 4252 c-16 -11 -18 -63 -3 -60 7 2 12 -2 11 -8 -3 -15 42 -27
68 -19 10 4 24 15 30 26 10 19 11 19 45 -11 19 -16 43 -30 53 -30 28 0 71 39
71 64 0 36 -15 43 -84 35 -35 -3 -86 -3 -112 2 -63 10 -67 10 -79 1z"/>
<path d="M2393 4106 c-27 -27 -32 -39 -30 -73 0 -23 5 -39 9 -37 4 3 5 -2 2
-10 -3 -9 -3 -24 1 -33 5 -10 7 -29 6 -43 -3 -29 -21 -53 -21 -27 0 9 -4 17
-10 17 -5 0 -10 -9 -10 -20 0 -19 20 -122 25 -128 6 -7 35 12 35 24 0 10 16
14 66 13 73 -1 72 -1 124 86 34 58 38 77 13 68 -15 -5 -16 -4 -7 8 20 26 24
49 9 42 -12 -4 -14 1 -9 25 5 22 1 35 -15 51 -12 12 -21 25 -21 30 0 5 -7 14
-15 21 -9 8 -15 9 -15 2 0 -6 5 -14 10 -17 15 -10 12 -35 -5 -35 -8 0 -14 5
-12 12 1 8 -17 13 -53 15 -38 2 -50 0 -40 -7 13 -8 12 -10 -2 -10 -21 0 -22 4
-7 32 17 32 6 30 -28 -6z m42 -46 c3 -6 -1 -13 -10 -16 -19 -8 -30 0 -20 15 8
14 22 14 30 1z m105 -10 c0 -5 -4 -10 -10 -10 -5 0 -10 5 -10 10 0 6 5 10 10
10 6 0 10 -4 10 -10z m-110 -40 c0 -5 -4 -10 -9 -10 -6 0 -13 5 -16 10 -3 6 1
10 9 10 9 0 16 -4 16 -10z m45 -60 c18 -8 17 -9 -7 -9 -15 -1 -30 4 -33 9 -7
12 12 12 40 0z"/>
<path d="M1060 3776 c0 -9 5 -16 10 -16 6 0 10 4 10 9 0 6 -4 13 -10 16 -5 3
-10 -1 -10 -9z"/>
<path d="M1095 3770 c-3 -5 -1 -10 4 -10 6 0 11 5 11 10 0 6 -2 10 -4 10 -3 0
-8 -4 -11 -10z"/>
<path d="M980 3730 c0 -46 -6 -49 -38 -15 -13 13 -27 24 -30 23 -4 -1 -25 4
-47 10 -55 16 -188 15 -228 -2 -18 -7 -44 -25 -59 -39 -25 -24 -68 -28 -68 -7
0 4 -10 8 -22 8 -13 0 -45 1 -72 2 -36 2 -51 -2 -58 -14 -5 -9 -15 -16 -23
-16 -7 0 -16 -8 -18 -17 -4 -17 -5 -17 -6 0 0 9 -3 17 -5 17 -2 0 -28 5 -57
11 -30 6 -71 10 -92 10 -20 -1 -37 3 -37 9 0 5 -11 10 -25 10 -16 0 -25 -6
-25 -15 0 -33 -20 -12 -21 23 l-2 37 -6 -40 c-4 -26 -9 -35 -14 -27 -19 29
-27 6 -27 -82 l0 -93 103 -7 c56 -4 138 -11 182 -16 391 -46 705 -69 705 -52
0 5 -11 7 -25 4 -31 -6 -33 14 -2 24 43 14 222 1 212 -16 -3 -4 4 -10 15 -13
11 -3 18 0 17 7 -1 6 4 10 11 9 6 -2 12 4 12 12 0 21 28 19 33 -2 4 -17 5 -16
6 0 1 16 6 17 34 11 17 -4 53 -7 80 -7 40 1 47 -2 47 -18 0 -10 5 -19 11 -19
6 0 9 7 5 15 -4 10 1 15 16 15 15 0 19 3 12 10 -5 5 -49 12 -98 15 -48 3 -106
9 -129 13 -47 9 -77 5 -77 -9 0 -5 -5 -9 -11 -9 -6 0 -9 7 -5 15 4 12 0 14
-19 9 -13 -3 -32 -1 -42 5 -17 10 -17 10 0 11 14 0 17 9 17 50 0 49 -1 50 -30
50 -33 0 -38 -11 -15 -30 15 -12 11 -35 -5 -25 -5 3 -10 -7 -12 -22 -2 -20 -9
-29 -25 -31 -17 -3 -21 1 -20 19 1 12 11 29 23 38 18 14 20 20 11 46 -6 16
-18 38 -27 48 -12 12 -16 31 -14 57 1 22 -2 40 -7 40 -5 0 -9 -18 -9 -40z
m240 -239 c0 -6 -9 -9 -19 -8 -11 0 -17 5 -15 9 7 11 34 10 34 -1z"/>
<path d="M1165 3760 c-3 -5 1 -10 9 -10 9 0 16 5 16 10 0 6 -4 10 -9 10 -6 0
-13 -4 -16 -10z"/>
<path d="M72 3748 c3 -7 22 -14 44 -16 l39 -3 -29 16 c-34 18 -59 20 -54 3z"/>
<path d="M1228 3753 c7 -3 16 -2 19 1 4 3 -2 6 -13 5 -11 0 -14 -3 -6 -6z"/>
<path d="M3262 3740 c0 -14 2 -19 5 -12 2 6 2 18 0 25 -3 6 -5 1 -5 -13z"/>
<path d="M1275 3740 c3 -5 8 -10 11 -10 2 0 4 5 4 10 0 6 -5 10 -11 10 -5 0
-7 -4 -4 -10z"/>
<path d="M1400 3740 c0 -5 5 -10 10 -10 6 0 10 5 10 10 0 6 -4 10 -10 10 -5 0
-10 -4 -10 -10z"/>
<path d="M270 3721 c0 -5 7 -11 15 -15 8 -3 15 -1 15 3 0 5 -7 11 -15 15 -8 3
-15 1 -15 -3z"/>
<path d="M1065 3720 c3 -5 16 -10 28 -9 21 0 21 1 2 9 -28 12 -37 12 -30 0z"/>
<path d="M1166 3712 c-3 -6 -1 -14 5 -17 15 -10 25 3 12 16 -7 7 -13 7 -17 1z"/>
<path d="M1220 3700 c0 -5 7 -10 15 -10 8 0 15 5 15 10 0 6 -7 10 -15 10 -8 0
-15 -4 -15 -10z"/>
<path d="M1270 3688 c0 -10 5 -18 10 -18 6 0 10 6 10 14 0 8 6 16 13 19 6 3 2
4 -10 4 -15 -1 -23 -8 -23 -19z"/>
<path d="M2401 3694 c0 -11 3 -14 6 -6 3 7 2 16 -1 19 -3 4 -6 -2 -5 -13z"/>
<path d="M1065 3679 c-4 -6 -5 -12 -2 -15 2 -3 7 2 10 11 7 17 1 20 -8 4z"/>
<path d="M1398 3683 c7 -3 16 -2 19 1 4 3 -2 6 -13 5 -11 0 -14 -3 -6 -6z"/>
<path d="M1080 3660 c0 -5 7 -10 15 -10 8 0 15 5 15 10 0 6 -7 10 -15 10 -8 0
-15 -4 -15 -10z"/>
<path d="M3150 3654 c0 -8 5 -12 10 -9 6 4 8 11 5 16 -9 14 -15 11 -15 -7z"/>
<path d="M3207 3651 c5 -19 36 -34 47 -23 3 3 6 14 6 24 0 13 -8 18 -29 18
-24 0 -28 -4 -24 -19z m28 -1 c3 -5 1 -10 -4 -10 -6 0 -11 5 -11 10 0 6 2 10
4 10 3 0 8 -4 11 -10z"/>
<path d="M1160 3650 c0 -5 5 -10 10 -10 6 0 10 5 10 10 0 6 -4 10 -10 10 -5 0
-10 -4 -10 -10z"/>
<path d="M1220 3650 c0 -5 7 -10 15 -10 8 0 15 5 15 10 0 6 -7 10 -15 10 -8 0
-15 -4 -15 -10z"/>
<path d="M1270 3640 c0 -11 5 -20 10 -20 6 0 10 9 10 20 0 11 -4 20 -10 20 -5
0 -10 -9 -10 -20z"/>
<path d="M3310 3650 c0 -5 5 -10 10 -10 6 0 10 5 10 10 0 6 -4 10 -10 10 -5 0
-10 -4 -10 -10z"/>
<path d="M3360 3645 c0 -8 5 -15 10 -15 6 0 10 7 10 15 0 8 -4 15 -10 15 -5 0
-10 -7 -10 -15z"/>
<path d="M3401 3644 c0 -11 3 -14 6 -6 3 7 2 16 -1 19 -3 4 -6 -2 -5 -13z"/>
<path d="M3430 3640 c0 -11 11 -22 29 -28 33 -12 41 -7 41 22 0 17 -7 21 -35
23 -28 1 -35 -2 -35 -17z"/>
<path d="M3573 3643 c-42 -16 22 -55 74 -45 36 7 30 42 -6 42 -16 0 -35 2 -43
4 -7 3 -19 2 -25 -1z"/>
<path d="M3870 3640 c-9 -6 -10 -10 -3 -10 6 0 15 5 18 10 8 12 4 12 -15 0z"/>
<path d="M4182 3625 c0 -16 2 -22 5 -12 2 9 2 23 0 30 -3 6 -5 -1 -5 -18z"/>
<path d="M1388 3633 c6 -2 18 -2 25 0 6 3 1 5 -13 5 -14 0 -19 -2 -12 -5z"/>
<path d="M3530 3629 c0 -5 5 -7 10 -4 6 3 10 8 10 11 0 2 -4 4 -10 4 -5 0 -10
-5 -10 -11z"/>
<path d="M3685 3618 c1 -13 6 -23 11 -23 5 0 10 10 12 23 2 14 -2 22 -11 22
-8 0 -13 -9 -12 -22z"/>
<path d="M4060 3620 c0 -5 7 -10 15 -10 8 0 15 5 15 10 0 6 -7 10 -15 10 -8 0
-15 -4 -15 -10z"/>
<path d="M4100 3622 c0 -14 11 -21 26 -15 21 8 17 23 -6 23 -11 0 -20 -4 -20
-8z"/>
<path d="M4161 3614 c0 -11 3 -14 6 -6 3 7 2 16 -1 19 -3 4 -6 -2 -5 -13z"/>
<path d="M4283 3623 c9 -2 23 -2 30 0 6 3 -1 5 -18 5 -16 0 -22 -2 -12 -5z"/>
<path d="M4665 3620 c-19 -8 -19 -9 3 -9 12 -1 22 4 22 9 0 6 -1 10 -2 9 -2 0
-12 -4 -23 -9z"/>
<path d="M1214 3604 c10 -9 24 -13 36 -9 16 5 20 2 20 -17 0 -18 2 -20 10 -8
11 18 -7 43 -27 36 -7 -3 -13 -1 -13 4 0 6 -9 10 -21 10 -19 0 -19 -1 -5 -16z"/>
<path d="M3750 3610 c0 -5 5 -10 10 -10 6 0 10 5 10 10 0 6 -4 10 -10 10 -5 0
-10 -4 -10 -10z"/>
<path d="M3810 3605 c0 -8 5 -15 10 -15 6 0 10 7 10 15 0 8 -4 15 -10 15 -5 0
-10 -7 -10 -15z"/>
<path d="M3840 3609 c0 -5 5 -7 11 -4 6 4 9 0 7 -11 -2 -11 4 -20 13 -22 11
-2 18 6 21 23 5 22 2 25 -23 25 -16 0 -29 -5 -29 -11z"/>
<path d="M1162 3601 c2 -7 7 -12 11 -12 12 1 9 15 -3 20 -7 2 -11 -2 -8 -8z"/>
<path d="M4205 3600 c-3 -5 -1 -10 4 -10 6 0 11 5 11 10 0 6 -2 10 -4 10 -3 0
-8 -4 -11 -10z"/>
<path d="M4390 3600 c0 -5 -7 -7 -15 -4 -8 4 -15 1 -15 -5 0 -6 9 -11 20 -11
11 0 20 7 20 15 0 8 -2 15 -5 15 -3 0 -5 -4 -5 -10z"/>
<path d="M4555 3600 c-3 -5 -1 -10 4 -10 6 0 11 5 11 10 0 6 -2 10 -4 10 -3 0
-8 -4 -11 -10z"/>
<path d="M1325 3590 c-3 -5 -1 -10 4 -10 6 0 11 5 11 10 0 6 -2 10 -4 10 -3 0
-8 -4 -11 -10z"/>
<path d="M1390 3588 c0 -4 7 -8 15 -8 8 0 15 4 15 8 0 5 -7 9 -15 9 -8 0 -15
-4 -15 -9z"/>
<path d="M1455 3581 c-3 -5 -1 -12 5 -16 5 -3 10 1 10 9 0 18 -6 21 -15 7z"/>
<path d="M3300 3570 c0 -5 5 -10 10 -10 6 0 10 5 10 10 0 6 -4 10 -10 10 -5 0
-10 -4 -10 -10z"/>
<path d="M3355 3570 c-7 -12 2 -30 16 -30 5 0 9 9 9 20 0 21 -15 27 -25 10z"/>
<path d="M3422 3558 c3 -25 58 -47 58 -23 0 7 3 20 6 29 5 13 -1 16 -31 16
-32 0 -36 -3 -33 -22z"/>
<path d="M1508 3564 c17 -8 15 -24 -3 -24 -10 0 -15 -10 -15 -34 0 -30 4 -35
30 -41 16 -4 35 -3 41 1 7 4 10 1 7 -7 -3 -10 -19 -13 -49 -12 -36 2 -39 0
-19 -6 14 -5 42 -9 63 -10 35 -1 37 0 27 19 -6 12 -9 35 -6 52 6 38 -11 56
-56 63 -18 3 -27 3 -20 -1z m29 -40 c-3 -3 -12 -4 -19 -1 -8 3 -5 6 6 6 11 1
17 -2 13 -5z"/>
<path d="M3557 3556 c-3 -8 2 -21 12 -30 17 -16 19 -15 25 6 l7 23 10 -24 c6
-15 14 -21 25 -17 9 3 18 6 20 6 2 0 4 8 4 19 0 30 -92 45 -103 17z m20 -18
c-3 -8 -6 -5 -6 6 -1 11 2 17 5 13 3 -3 4 -12 1 -19z"/>
<path d="M4490 3553 c0 -12 -9 -27 -20 -33 -25 -14 -81 -9 -87 7 -6 16 -33 17
-33 2 0 -8 -12 -10 -36 -6 -49 8 -97 -2 -90 -19 3 -7 1 -16 -3 -19 -5 -3 -7
-15 -4 -28 4 -22 4 -22 -11 -2 -16 18 -16 18 -10 -13 4 -21 3 -32 -5 -32 -6 0
-16 -21 -22 -46 l-12 -46 -117 5 -117 5 1 -32 c0 -26 -3 -31 -24 -32 -50 -3
-43 -7 20 -14 36 -3 66 -5 68 -4 2 1 4 16 4 33 1 26 4 30 22 26 12 -3 172 -14
356 -25 184 -12 336 -23 338 -25 10 -10 -12 -25 -30 -19 -12 3 -24 0 -31 -9
-10 -13 -35 -14 -177 -5 -122 7 -168 14 -176 24 -10 13 -12 13 -17 0 -4 -11
-18 -14 -51 -11 -26 2 -46 -1 -46 -6 0 -5 19 -9 43 -9 24 0 46 -2 49 -5 2 -3
53 -7 113 -10 59 -2 110 -7 113 -9 2 -3 -7 -11 -22 -17 -60 -28 -28 -35 177
-45 143 -6 147 -6 147 14 0 11 -6 23 -12 25 -10 4 -10 6 0 6 10 1 12 40 12
176 -2 157 -8 200 -24 163 -3 -9 -13 -4 -29 15 l-23 28 -19 -21 c-18 -20 -18
-20 13 -20 32 0 42 -13 21 -26 -6 -3 -15 -1 -19 6 -5 8 -17 10 -33 6 -26 -6
-47 8 -25 17 8 3 6 6 -4 6 -10 1 -18 -3 -18 -8 0 -5 -7 -12 -16 -15 -12 -4
-15 -2 -10 9 5 13 -10 20 -36 16 -4 0 -5 6 -2 14 4 8 2 15 -4 15 -5 0 -12 -7
-16 -15 -8 -21 -26 -19 -27 3 0 11 -2 12 -6 4 -4 -10 -8 -9 -19 5 -13 17 -13
17 -14 -4z m275 -203 c3 -5 2 -10 -4 -10 -5 0 -13 5 -16 10 -3 6 -2 10 4 10 5
0 13 -4 16 -10z m-18 -66 c2 -6 -4 -14 -14 -16 -22 -6 -63 8 -63 20 0 13 73 9
77 -4z"/>
<path d="M4620 3559 c0 -5 5 -7 10 -4 6 3 10 8 10 11 0 2 -4 4 -10 4 -5 0 -10
-5 -10 -11z"/>
<path d="M4655 3560 c3 -5 8 -10 11 -10 2 0 4 5 4 10 0 6 -5 10 -11 10 -5 0
-7 -4 -4 -10z"/>
<path d="M1160 3545 c0 -8 5 -15 10 -15 6 0 10 7 10 15 0 8 -4 15 -10 15 -5 0
-10 -7 -10 -15z"/>
<path d="M1634 3546 c-13 -35 13 -61 64 -64 24 -2 32 2 32 14 0 13 3 14 14 5
10 -9 15 -8 19 3 4 9 2 18 -4 22 -6 3 -8 12 -5 20 4 11 -7 14 -55 14 -41 0
-61 -4 -65 -14z"/>
<path d="M3680 3536 c0 -14 5 -26 10 -26 6 0 10 7 10 15 0 8 0 18 1 22 0 4 -4
9 -10 11 -6 2 -11 -8 -11 -22z"/>
<path d="M4590 3549 c0 -5 5 -7 10 -4 6 3 10 8 10 11 0 2 -4 4 -10 4 -5 0 -10
-5 -10 -11z"/>
<path d="M1210 3540 c0 -5 7 -10 15 -10 8 0 15 5 15 10 0 6 -7 10 -15 10 -8 0
-15 -4 -15 -10z"/>
<path d="M1260 3539 c0 -11 21 -11 39 0 9 6 5 9 -13 9 -14 0 -26 -4 -26 -9z"/>
<path d="M1400 3540 c0 -5 -8 -7 -17 -4 -15 5 -16 4 -3 -5 21 -15 37 -14 37 4
0 8 -4 15 -9 15 -4 0 -8 -4 -8 -10z"/>
<path d="M3840 3539 c0 -5 5 -9 11 -9 8 0 7 -5 -1 -15 -15 -18 -7 -30 13 -22
20 8 16 50 -5 53 -10 1 -18 -2 -18 -7z"/>
<path d="M3901 3534 c0 -11 3 -14 6 -6 3 7 2 16 -1 19 -3 4 -6 -2 -5 -13z"/>
<path d="M3930 3540 c0 -5 4 -10 9 -10 6 0 13 5 16 10 3 6 -1 10 -9 10 -9 0
-16 -4 -16 -10z"/>
<path d="M3740 3530 c0 -5 4 -10 9 -10 6 0 13 5 16 10 3 6 -1 10 -9 10 -9 0
-16 -4 -16 -10z"/>
<path d="M1455 3520 c3 -5 8 -10 11 -10 2 0 4 5 4 10 0 6 -5 10 -11 10 -5 0
-7 -4 -4 -10z"/>
<path d="M3211 3474 c-13 -13 -21 -27 -18 -31 4 -3 7 -1 7 5 0 7 9 12 20 12
13 0 20 7 20 20 0 24 1 24 -29 -6z"/>
<path d="M3300 3480 c0 -5 5 -10 10 -10 6 0 10 5 10 10 0 6 -4 10 -10 10 -5 0
-10 -4 -10 -10z"/>
<path d="M3340 3475 c0 -8 7 -15 15 -15 8 0 15 7 15 15 0 8 -7 15 -15 15 -8 0
-15 -7 -15 -15z"/>
<path d="M3420 3469 c0 -15 5 -19 15 -15 8 3 15 1 15 -4 0 -18 19 -10 25 11 8
26 -3 38 -16 19 -8 -11 -12 -12 -16 -2 -8 20 -23 14 -23 -9z"/>
<path d="M3890 3459 c0 -54 -11 -81 -28 -74 -25 10 -49 -4 -48 -28 0 -12 7
-22 14 -21 6 1 46 2 87 3 l75 1 0 35 c0 19 -4 35 -10 35 -5 0 -10 9 -10 20 0
11 7 20 15 20 8 0 15 7 15 15 0 9 -9 15 -24 15 -13 0 -38 3 -55 6 -30 6 -31 5
-31 -27z"/>
<path d="M3542 3458 c0 -13 -3 -47 -7 -75 -6 -43 -10 -51 -23 -44 -8 5 -28 5
-43 1 -16 -5 -53 -6 -84 -4 -35 4 -55 1 -55 -5 0 -6 23 -12 53 -13 115 -4 138
-6 151 -17 10 -8 16 -9 21 -2 3 6 25 8 53 5 53 -6 69 -13 52 -24 -8 -5 -7 -9
4 -13 9 -4 21 -1 28 7 10 10 17 10 39 -1 18 -9 41 -11 68 -7 45 7 51 27 10 33
-13 1 -26 7 -29 11 -3 4 -22 11 -42 14 -29 4 -38 3 -38 -8 0 -8 -5 -18 -11
-22 -8 -4 -9 0 -4 15 4 14 2 21 -6 21 -10 0 -10 3 -1 12 17 17 15 55 -3 62
-10 4 -15 -1 -16 -17 -3 -64 -1 -62 -52 -63 -57 -2 -61 19 -4 24 20 2 38 7 39
13 4 27 1 32 -21 36 -14 2 -27 5 -29 8 -9 9 10 24 38 30 17 4 30 10 30 14 0
16 -26 31 -56 31 -26 0 -34 -5 -37 -22 l-4 -23 -2 23 c0 12 -5 22 -10 22 -5 0
-9 -10 -9 -22z m58 2 c0 -5 -2 -10 -4 -10 -3 0 -8 5 -11 10 -3 6 -1 10 4 10 6
0 11 -4 11 -10z"/>
<path d="M3668 3455 c-3 -13 -3 -27 0 -30 9 -9 32 17 32 36 0 28 -27 23 -32
-6z"/>
<path d="M1881 3454 c0 -11 3 -14 6 -6 3 7 2 16 -1 19 -3 4 -6 -2 -5 -13z"/>
<path d="M1004 3452 c9 -8 79 -9 106 -1 17 5 2 7 -43 7 -37 0 -66 -3 -63 -6z"/>
<path d="M3740 3449 c0 -5 5 -7 10 -4 6 3 10 8 10 11 0 2 -4 4 -10 4 -5 0 -10
-5 -10 -11z"/>
<path d="M3851 3443 c12 -15 12 -16 -3 -10 -12 4 -18 2 -18 -7 0 -20 27 -27
34 -10 10 27 6 44 -10 44 -14 0 -15 -2 -3 -17z"/>
<path d="M4020 3450 c0 -5 7 -10 15 -10 8 0 15 5 15 10 0 6 -7 10 -15 10 -8 0
-15 -4 -15 -10z"/>
<path d="M1140 3440 c0 -5 5 -10 10 -10 6 0 10 5 10 10 0 6 -4 10 -10 10 -5 0
-10 -4 -10 -10z"/>
<path d="M1610 3434 c0 -9 5 -14 12 -12 18 6 21 28 4 28 -9 0 -16 -7 -16 -16z"/>
<path d="M4170 3436 c0 -9 5 -16 10 -16 6 0 10 4 10 9 0 6 -4 13 -10 16 -5 3
-10 -1 -10 -9z"/>
<path d="M1650 3430 c0 -5 7 -10 15 -10 8 0 15 5 15 10 0 6 -7 10 -15 10 -8 0
-15 -4 -15 -10z"/>
<path d="M3170 3420 c0 -8 4 -29 9 -47 8 -28 7 -31 -11 -28 -12 3 -18 -1 -15
-8 2 -7 17 -12 33 -12 16 0 32 -4 36 -10 5 -6 8 -5 8 3 0 6 9 12 20 12 24 0
25 8 4 59 -13 33 -21 40 -50 43 -26 3 -34 0 -34 -12z"/>
<path d="M1258 3423 c7 -3 16 -2 19 1 4 3 -2 6 -13 5 -11 0 -14 -3 -6 -6z"/>
<path d="M3290 3400 c0 -5 5 -10 10 -10 6 0 10 5 10 10 0 6 -4 10 -10 10 -5 0
-10 -4 -10 -10z"/>
<path d="M3410 3395 c0 -8 -1 -18 -2 -22 -2 -4 9 -10 25 -14 21 -6 29 -3 37
11 17 31 11 40 -25 40 -24 0 -35 -5 -35 -15z"/>
<path d="M3511 3394 c0 -11 3 -14 6 -6 3 7 2 16 -1 19 -3 4 -6 -2 -5 -13z"/>
<path d="M1874 3392 c-9 -5 -8 -11 2 -20 12 -11 14 -9 14 8 0 22 0 23 -16 12z"/>
<path d="M3330 3390 c0 -5 7 -10 15 -10 8 0 15 5 15 10 0 6 -7 10 -15 10 -8 0
-15 -4 -15 -10z"/>
<path d="M3491 3374 c0 -11 3 -14 6 -6 3 7 2 16 -1 19 -3 4 -6 -2 -5 -13z"/>
<path d="M3776 3381 c-8 -13 4 -42 15 -35 12 7 12 44 0 44 -6 0 -12 -4 -15 -9z"/>
<path d="M3725 3370 c-3 -5 1 -10 10 -10 9 0 13 5 10 10 -3 6 -8 10 -10 10 -2
0 -7 -4 -10 -10z"/>
<path d="M4000 3360 c0 -5 9 -10 21 -10 11 0 17 5 14 10 -3 6 -13 10 -21 10
-8 0 -14 -4 -14 -10z"/>
<path d="M3293 3326 c28 -22 20 -42 -22 -54 -48 -15 -48 -15 -55 4 -5 13 -1
15 24 12 16 -3 30 -1 30 2 0 14 -104 20 -112 8 -4 -7 -2 -16 5 -20 9 -6 9 -10
-1 -16 -8 -6 39 -12 115 -16 70 -4 145 -9 167 -11 21 -2 49 0 62 5 18 7 24 5
27 -8 3 -11 5 -7 6 9 1 18 9 28 29 35 24 9 23 10 -20 9 -36 0 -44 -3 -36 -12
8 -10 3 -13 -18 -14 -69 -4 -100 3 -120 26 -20 21 -23 22 -38 7 -15 -15 -16
-14 -16 16 0 27 -4 32 -22 32 -21 -1 -22 -2 -5 -14z m84 -72 c-3 -3 -12 -4
-19 -1 -8 3 -5 6 6 6 11 1 17 -2 13 -5z"/>
<path d="M3460 3290 c0 -5 5 -10 10 -10 6 0 10 5 10 10 0 6 -4 10 -10 10 -5 0
-10 -4 -10 -10z"/>
<path d="M4010 3243 c0 -13 132 -24 145 -12 5 5 -6 9 -30 9 -22 0 -57 3 -77 6
-23 4 -38 3 -38 -3z"/>
<path d="M3555 3230 c3 -5 8 -10 11 -10 2 0 4 5 4 10 0 6 -5 10 -11 10 -5 0
-7 -4 -4 -10z"/>
<path d="M3720 3230 c0 -5 7 -10 16 -10 8 0 12 5 9 10 -3 6 -10 10 -16 10 -5
0 -9 -4 -9 -10z"/>
<path d="M3765 3220 c3 -5 8 -10 11 -10 2 0 4 5 4 10 0 6 -5 10 -11 10 -5 0
-7 -4 -4 -10z"/>
<path d="M3918 3203 c12 -2 32 -2 45 0 12 2 2 4 -23 4 -25 0 -35 -2 -22 -4z"/>
<path d="M1933 3028 c20 -6 37 -14 37 -18 0 -4 9 -10 20 -13 13 -3 18 -10 14
-21 -4 -12 -2 -15 9 -10 8 3 18 1 22 -5 4 -7 0 -8 -11 -4 -13 5 -15 2 -9 -15
7 -23 -1 -62 -13 -61 -4 1 -16 1 -26 0 -15 -1 -17 -4 -9 -12 8 -8 7 -27 -4
-67 -8 -32 -16 -64 -17 -72 -2 -8 -6 -22 -9 -30 -8 -22 -18 -80 -20 -117 -1
-17 -5 -29 -9 -26 -18 11 -6 -24 16 -44 l23 -22 1 43 c0 28 18 85 50 162 50
119 91 280 75 294 -10 10 -146 50 -164 49 -8 -1 3 -6 24 -11z"/>
<path d="M2877 2973 c-7 -11 10 -53 22 -53 5 0 11 7 15 15 6 16 96 22 96 6 0
-5 9 -11 20 -14 23 -6 26 -25 5 -33 -11 -5 -11 -9 -2 -18 9 -11 14 -10 24 0 7
7 13 18 13 25 0 7 3 9 7 6 4 -4 -4 -25 -16 -47 -12 -22 -18 -40 -12 -40 14 0
37 55 46 110 7 39 6 42 -11 36 -11 -4 -27 -9 -36 -11 -19 -4 -125 10 -149 20
-10 3 -19 3 -22 -2z"/>
<path d="M1835 2950 c3 -5 -3 -10 -15 -10 -13 0 -19 -4 -14 -11 3 -6 19 -9 34
-7 20 3 26 0 23 -8 -3 -8 -16 -11 -36 -8 -18 2 -25 1 -17 -2 8 -4 23 -13 33
-22 9 -8 20 -13 23 -9 9 9 22 75 16 81 -10 10 -53 6 -47 -4z"/>
<path d="M1721 2939 c-1 -3 4 -20 10 -37 l10 -31 25 22 c13 11 24 28 23 36 0
11 -2 12 -6 3 -4 -10 -8 -10 -20 -1 -11 10 -16 10 -23 0 -6 -11 -9 -11 -13 0
-3 8 -6 11 -6 8z"/>
<path d="M1990 2933 c0 -4 5 -15 10 -23 8 -13 10 -13 10 2 0 9 -4 20 -10 23
-5 3 -10 3 -10 -2z"/>
<path d="M0 2910 c0 -12 7 -20 16 -20 13 0 14 3 5 13 -6 8 -8 17 -4 20 3 4 1
7 -5 7 -7 0 -12 -9 -12 -20z"/>
<path d="M1797 2879 c-9 -6 -17 -7 -17 -3 0 3 -7 1 -15 -6 -20 -17 -19 -27 5
-33 20 -5 45 15 33 27 -4 4 0 4 10 0 9 -3 17 -1 17 4 0 17 -14 21 -33 11z"/>
<path d="M2858 2823 c-25 -58 -28 -77 -18 -93 7 -11 10 -6 11 20 0 30 2 32 10
15 8 -18 9 -17 5 4 -7 36 9 60 35 54 15 -4 20 -3 15 5 -4 7 -13 12 -21 12 -7
0 -15 5 -17 11 -2 6 -11 -7 -20 -28z"/>
<path d="M2960 2825 c0 -18 -5 -25 -18 -25 -13 0 -21 -11 -28 -37 -6 -25 -15
-38 -25 -37 -11 1 -14 -5 -11 -22 2 -12 -8 -48 -23 -80 -20 -42 -24 -59 -15
-64 9 -5 9 -9 1 -14 -6 -4 -11 -3 -11 2 0 5 -9 12 -20 15 -17 4 -19 2 -13 -20
4 -17 2 -24 -4 -20 -6 4 -13 -2 -16 -12 -3 -12 1 -22 10 -25 11 -4 13 -2 9 9
-4 13 -2 14 14 5 26 -14 36 -31 13 -24 -15 5 -15 4 -3 -4 10 -8 18 -8 27 0 18
15 16 8 -10 -43 -20 -37 -29 -44 -54 -45 -23 -1 -30 3 -26 13 3 8 2 13 -3 11
-5 -1 -22 10 -38 24 l-28 27 26 31 c14 18 26 40 26 50 0 17 -4 18 -31 8 -18
-6 -93 -9 -193 -6 -130 3 -163 1 -159 -9 3 -7 0 -13 -6 -13 -6 0 -11 4 -11 9
0 5 -20 14 -44 20 -24 6 -82 30 -128 53 l-85 43 -22 -46 c-12 -26 -21 -67 -21
-93 0 -45 -7 -53 -42 -47 -4 0 -5 -6 -2 -14 8 -20 -6 -19 -35 2 -14 9 -21 11
-17 5 4 -6 0 -22 -9 -35 -8 -13 -12 -27 -8 -30 3 -4 1 -7 -5 -7 -7 0 -12 -7
-12 -16 0 -10 -6 -14 -14 -11 -8 3 -20 -1 -27 -9 -14 -17 4 -58 49 -106 l25
-27 -23 -9 c-13 -5 -19 -12 -13 -15 6 -4 23 3 38 15 22 17 31 19 46 10 12 -8
19 -8 19 -2 0 5 4 10 10 10 5 0 7 -7 4 -15 -4 -8 -14 -15 -24 -15 -10 0 -23
-6 -29 -14 -9 -11 -6 -15 14 -20 32 -8 32 -21 0 -42 -32 -21 -32 -34 1 -28 16
3 23 1 19 -6 -3 -5 -14 -10 -23 -10 -12 0 -13 -3 -5 -11 9 -9 8 -15 0 -24 -10
-11 -15 -10 -29 2 -11 10 -18 12 -18 5 0 -7 -4 -12 -10 -12 -5 0 -10 7 -10 15
0 8 5 15 10 15 6 0 10 4 10 9 0 4 -12 8 -27 7 -20 -1 -33 7 -45 27 -19 29 -24
57 -10 57 4 0 8 9 9 20 1 16 -3 19 -24 16 -31 -6 -27 -2 -48 -51 -15 -37 -17
-38 -27 -20 -16 30 -18 31 -28 16 -4 -8 -20 -15 -35 -17 -25 -3 -26 -2 -11 14
14 16 13 18 -20 17 -42 -2 -55 -18 -47 -60 9 -46 23 -54 23 -12 0 39 7 44 43
25 12 -6 29 -14 37 -18 8 -4 17 -16 18 -26 4 -19 3 -18 -11 0 -10 14 -20 17
-33 12 -17 -7 -17 -9 -3 -19 13 -8 14 -15 5 -38 -8 -23 -7 -31 6 -41 20 -16
24 -34 14 -71 -9 -29 -29 -38 -95 -40 -31 -2 -40 -5 -36 -17 7 -21 -31 -45
-39 -25 -3 9 -16 12 -36 10 -26 -4 -30 -2 -20 10 6 7 10 19 9 27 -5 40 2 67
16 62 8 -4 15 -1 15 5 0 6 -4 11 -10 11 -5 0 -10 5 -10 10 0 6 7 10 16 10 10
0 14 5 10 15 -6 17 13 65 26 65 4 0 8 5 8 10 0 6 -11 10 -25 10 -18 0 -23 -4
-19 -15 4 -10 0 -15 -13 -15 -17 0 -19 6 -15 65 4 54 2 65 -11 65 -11 0 -14 7
-11 24 2 14 -1 28 -6 31 -8 5 -8 11 0 20 7 8 9 24 5 36 -5 14 -4 19 4 15 6 -4
11 -3 11 2 0 5 16 30 35 55 40 52 41 57 19 57 -8 0 -12 5 -8 11 4 7 9 8 17 0
12 -12 51 5 42 20 -4 5 -11 7 -16 4 -5 -4 -9 3 -9 14 0 12 -4 21 -10 21 -5 0
-7 6 -4 14 3 8 -1 13 -10 13 -23 -3 -23 17 1 27 18 8 20 16 16 45 -3 20 -10
40 -14 45 -5 6 -9 22 -9 37 0 15 -4 31 -10 34 -20 12 -9 25 23 26 17 0 25 3
17 6 -8 2 -25 9 -37 15 -12 6 -28 8 -36 5 -9 -3 -18 1 -22 11 -5 13 -8 14 -14
3 -5 -7 -13 -11 -19 -7 -6 3 -14 0 -19 -7 -4 -8 -20 -22 -35 -31 -20 -13 -27
-14 -31 -4 -4 11 -6 11 -6 0 -1 -7 -5 -10 -11 -7 -5 3 -10 1 -10 -4 0 -6 -7
-11 -15 -11 -8 0 -15 7 -15 15 0 18 -46 21 -52 3 -7 -18 2 -39 13 -33 5 4 17
1 26 -5 14 -8 8 -9 -27 -7 -52 5 -70 0 -70 -18 0 -20 -31 -76 -40 -70 -4 3
-11 -2 -14 -11 -4 -10 6 -26 26 -45 18 -16 27 -29 21 -29 -6 0 -14 6 -16 13
-4 10 -6 10 -6 0 -1 -7 -8 -13 -17 -13 -8 0 -13 -4 -10 -9 3 -4 -7 -6 -22 -3
-15 3 -24 1 -20 -2 3 -4 -1 -16 -10 -26 -11 -14 -19 -16 -28 -9 -7 6 -18 8
-24 4 -6 -4 -21 0 -34 8 -20 14 -26 14 -54 0 -42 -20 -30 -36 23 -31 37 5 41
3 40 -16 -1 -12 3 -24 9 -28 8 -6 6 -11 -4 -18 -8 -5 -11 -10 -6 -10 6 0 1 -6
-9 -14 -11 -8 -24 -12 -30 -9 -7 2 -18 -3 -25 -12 -9 -11 -16 -13 -26 -4 -10
8 -22 6 -46 -10 -21 -13 -27 -21 -16 -21 9 0 19 -6 21 -12 4 -10 6 -10 6 0 2
25 16 11 18 -18 1 -20 -2 -30 -12 -30 -8 0 -17 -5 -20 -10 -9 -14 13 -40 28
-35 7 2 25 6 40 10 22 4 28 10 25 28 -2 12 -9 21 -16 19 -16 -3 -16 15 1 21
15 6 47 -15 47 -32 0 -6 8 -11 19 -11 22 0 36 -40 18 -52 -19 -12 -25 -9 -29
15 -4 28 -33 29 -33 1 0 -11 -6 -28 -14 -37 -16 -21 0 -47 30 -47 11 0 19 -3
19 -7 1 -5 4 -27 9 -49 l8 -42 -36 4 c-42 5 -67 -11 -76 -49 -6 -21 -4 -27 9
-27 9 0 16 5 16 10 0 6 12 -1 26 -15 21 -21 29 -24 35 -13 6 9 9 9 9 1 0 -6
-5 -15 -11 -19 -6 -3 -9 -15 -6 -25 5 -20 -39 -79 -59 -79 -6 0 -14 -8 -18
-17 -8 -26 -29 -57 -44 -66 -7 -5 -10 -12 -7 -18 4 -5 2 -9 -3 -9 -6 0 -12 7
-16 15 -3 8 -13 15 -22 15 -16 0 -15 -2 1 -20 20 -22 14 -33 -22 -45 -17 -4
-23 -2 -23 8 0 15 -20 27 -46 27 -21 0 -17 -26 7 -41 29 -20 16 -50 -22 -47
-16 1 -29 6 -29 10 0 4 -8 5 -17 2 -15 -5 -16 -4 -3 5 11 8 12 15 4 28 -14 23
-39 31 -31 10 11 -28 -11 -29 -29 -2 -20 31 -57 31 -62 -1 -2 -16 5 -25 27
-34 34 -14 42 -48 16 -70 -16 -13 -20 -5 -15 29 1 9 -4 12 -15 7 -9 -3 -19 -6
-22 -6 -3 0 2 -11 11 -25 14 -22 15 -25 1 -25 -8 0 -15 -7 -15 -16 0 -9 -5
-12 -12 -8 -8 5 -9 -2 -5 -24 6 -31 5 -32 -28 -32 -24 0 -37 6 -45 20 -6 11
-16 17 -25 14 -8 -4 -31 3 -50 15 -20 12 -43 21 -51 21 -17 0 -18 32 0 122 7
37 11 70 8 73 -3 3 0 6 6 6 7 1 17 3 22 4 6 1 14 3 19 4 13 2 22 29 11 36 -5
3 -17 -3 -27 -14 -27 -32 -32 -16 -17 61 8 40 15 92 16 116 1 24 5 45 10 48
11 7 39 -28 30 -36 -4 -3 -8 -15 -9 -27 -3 -22 9 -28 44 -24 6 1 14 -3 18 -9
17 -27 38 9 25 45 -7 19 -47 49 -82 61 -20 7 -24 24 -7 24 7 0 9 9 6 22 -8 30
28 68 65 68 15 0 28 5 28 10 0 6 11 8 26 4 20 -5 25 -3 22 7 -3 8 1 20 9 27
18 19 16 29 -7 42 -14 7 -20 7 -20 0 0 -5 -7 -10 -16 -10 -9 0 -18 -8 -21 -19
-2 -10 -18 -28 -34 -40 -20 -15 -27 -17 -23 -6 8 21 -20 29 -47 15 -20 -11
-25 -9 -42 14 -18 24 -20 25 -32 10 -12 -17 -40 -11 -30 6 3 5 1 11 -5 15 -5
3 -10 1 -10 -4 0 -6 0 -13 0 -16 0 -3 -9 -14 -21 -26 -13 -13 -18 -27 -14 -40
4 -11 2 -19 -5 -19 -11 0 -40 -24 -40 -33 0 -9 75 -4 87 5 7 6 17 7 23 3 6 -3
10 3 10 14 0 12 5 21 10 21 13 0 13 -13 -2 -45 -8 -18 -17 -24 -29 -20 -11 4
-22 -1 -28 -14 -9 -16 -7 -21 9 -26 12 -4 19 -14 18 -23 -3 -18 -1 -18 46 -6
24 6 28 4 24 -8 -4 -8 -9 -40 -13 -72 -4 -31 -11 -59 -16 -62 -5 -3 -9 -31 -9
-63 0 -52 -13 -149 -26 -194 -3 -9 -10 -14 -16 -11 -15 10 -59 -18 -53 -33 2
-8 0 -11 -5 -8 -6 3 -10 13 -10 21 0 11 -6 13 -20 9 -13 -4 -20 -2 -20 6 0 10
-3 10 -12 1 -8 -8 -8 -15 0 -25 8 -10 8 -17 1 -24 -14 -14 -3 -33 19 -33 9 0
28 -9 42 -20 20 -15 23 -21 12 -31 -9 -10 -12 -10 -12 -1 0 8 -13 10 -40 6
-24 -3 -40 -2 -40 4 0 6 -10 8 -22 4 -21 -5 -21 -6 7 -28 16 -13 26 -26 22
-30 -4 -4 -7 -2 -7 5 0 22 -33 -19 -34 -42 -1 -22 -36 -38 -36 -17 0 7 7 10
15 6 15 -5 21 5 9 17 -11 11 -42 -16 -36 -32 4 -13 1 -12 -16 3 l-22 19 0
-647 0 -646 1628 0 c1032 0 1641 4 1663 10 22 7 35 7 37 0 2 -5 15 -10 28 -10
15 0 23 4 19 10 -4 6 -12 7 -18 4 -9 -5 -9 -4 0 6 13 14 48 6 38 -10 -4 -7 18
-10 64 -8 39 1 71 5 71 10 0 4 -9 8 -20 8 -11 0 -20 5 -20 10 0 14 43 12 59
-2 11 -11 14 -10 18 0 3 9 12 7 33 -8 44 -31 55 -24 24 18 -50 65 -58 72 -101
94 -24 12 -43 28 -43 35 0 9 5 11 12 7 19 -12 138 -15 138 -4 0 6 -4 10 -10
10 -5 0 -10 5 -10 10 0 6 12 10 28 10 15 0 41 4 59 9 40 12 97 -14 99 -44 1
-11 2 -25 3 -31 2 -20 85 -101 120 -118 30 -14 88 -16 458 -16 l423 0 0 403
c0 240 -4 396 -9 388 -8 -12 -12 -12 -25 2 -23 22 -20 30 9 23 33 -8 32 7 -1
25 -23 12 -27 11 -39 -4 -9 -13 -27 -17 -70 -17 -32 0 -55 -3 -51 -7 4 -4 13
-8 19 -9 25 -1 97 -40 97 -51 0 -17 -12 -22 -54 -25 -24 -2 -36 -8 -37 -18 0
-10 -2 -11 -6 -2 -2 6 -14 12 -24 12 -33 0 -59 19 -58 43 l0 22 9 -23 c6 -14
18 -22 32 -22 21 1 22 2 6 14 -24 18 -23 30 2 23 11 -3 22 -1 25 4 3 4 -5 11
-18 15 -18 4 -23 11 -20 25 3 10 0 19 -6 19 -6 0 -11 -6 -11 -14 0 -13 -4 -13
-27 0 -36 18 -69 18 -77 -1 -3 -8 -16 -15 -28 -15 -21 -1 -21 -2 7 -17 17 -10
34 -16 39 -14 6 1 20 0 33 -4 35 -8 17 -27 -19 -19 -26 5 -30 4 -25 -10 10
-26 -7 -19 -56 24 -25 22 -47 40 -49 40 -3 0 -4 -14 -3 -30 2 -34 24 -64 32
-43 3 8 10 6 23 -7 11 -11 27 -16 38 -13 27 7 24 -26 -5 -50 -27 -22 -61 -24
-44 -3 10 12 8 17 -8 25 -25 14 -41 14 -41 1 0 -5 6 -10 14 -10 8 0 16 -10 18
-23 2 -16 11 -23 31 -25 15 -2 27 -8 27 -13 0 -14 -36 -11 -77 6 -19 8 -47 15
-62 16 l-26 0 24 10 c15 6 28 6 36 -1 9 -8 14 -6 19 5 3 8 0 15 -6 15 -6 0
-16 7 -22 16 -10 14 -24 14 -121 4 -61 -7 -120 -12 -133 -12 -22 0 -22 -1 -6
-19 9 -10 27 -19 38 -19 23 0 66 -26 66 -39 0 -15 -88 -23 -110 -11 -16 9 -24
8 -37 -5 -9 -9 -23 -15 -32 -12 -30 9 -36 9 -58 8 -13 0 -23 -6 -23 -12 0 -6
7 -9 15 -5 9 3 15 0 15 -9 0 -14 32 -37 47 -33 4 1 18 -3 31 -10 21 -12 33 0
12 13 -20 12 -10 35 15 35 30 0 52 -34 35 -55 -7 -9 -8 -15 -1 -19 6 -4 8 -13
4 -21 -3 -8 -2 -15 1 -15 4 0 11 12 17 28 11 27 11 27 20 5 9 -25 24 -30 34
-12 10 14 -24 49 -41 42 -13 -5 -18 7 -15 34 1 7 -4 14 -11 14 -7 1 12 5 42 9
61 9 68 7 50 -15 -11 -13 -8 -14 20 -8 22 4 31 3 27 -5 -9 -14 2 -42 17 -42 7
0 21 -8 32 -18 10 -10 28 -23 39 -30 17 -9 12 -11 -31 -10 -62 1 -80 -7 -63
-28 6 -8 17 -14 23 -14 6 0 4 5 -4 10 -12 8 -11 10 5 10 12 0 27 -6 33 -12 8
-8 15 -9 20 -3 4 6 16 12 27 13 11 2 23 9 27 15 5 8 14 6 29 -9 l21 -21 -84
-7 c-45 -4 -98 -10 -117 -13 -22 -4 -32 -2 -28 4 4 6 -4 11 -20 11 -14 0 -30
7 -35 16 -11 19 -28 21 -27 4 1 -19 86 -87 117 -95 26 -6 52 -25 52 -37 0 -12
-28 -6 -33 7 -4 10 -6 10 -6 0 -1 -15 -31 -18 -31 -3 0 6 -7 10 -15 10 -8 0
-12 -6 -9 -14 7 -17 -9 -22 -95 -31 -44 -5 -70 -3 -87 6 -41 22 -24 55 21 39
51 -18 77 -21 73 -8 -3 7 2 18 10 24 13 9 10 12 -14 18 -16 4 -37 14 -46 23
-9 8 -22 12 -27 8 -6 -3 -11 -1 -11 4 0 6 -17 11 -38 11 -21 0 -47 7 -58 15
-16 13 -16 14 -1 9 9 -3 17 -1 17 5 0 6 -5 11 -11 11 -5 0 -7 5 -3 11 4 8 9 7
15 -2 7 -11 9 -11 9 2 0 21 17 27 55 19 21 -4 29 -11 27 -23 -6 -35 42 -7 51
30 4 19 1 21 -22 18 -14 -3 -80 -7 -146 -9 -66 -3 -122 -5 -125 -5 -7 -1 41
-34 75 -51 21 -10 30 -22 29 -38 0 -17 5 -22 23 -22 13 0 23 -4 23 -9 0 -5 11
-12 25 -15 24 -6 36 -26 15 -26 -18 0 -11 -15 33 -62 23 -26 60 -55 81 -63 37
-16 73 -42 65 -49 -2 -2 -37 -6 -76 -10 -75 -6 -80 -3 -74 37 0 4 -3 7 -9 7
-5 0 -10 -4 -10 -10 0 -5 -7 -10 -16 -10 -8 0 -12 5 -8 11 3 6 0 15 -7 20 -8
5 -17 3 -21 -4 -6 -9 -8 -9 -8 1 0 6 -7 12 -15 12 -16 0 -21 25 -6 34 5 3 9
17 9 31 0 19 -5 25 -17 23 -9 -2 -15 -11 -15 -21 1 -9 -4 -17 -12 -17 -8 0
-14 7 -14 15 0 9 -9 15 -22 14 -13 0 -17 -3 -10 -6 18 -7 15 -21 -7 -32 -14
-8 -24 -6 -43 12 -57 51 -78 66 -78 57 0 -5 -9 -2 -20 7 -14 13 -16 19 -7 25
20 13 61 9 85 -8 22 -15 23 -15 20 2 -2 16 5 20 42 25 25 4 3 5 -48 3 -51 -2
-97 -6 -103 -9 -15 -10 -48 5 -60 27 -8 15 -8 22 1 28 8 5 7 9 -4 13 -20 8
-31 -26 -17 -52 15 -27 14 -30 -9 -24 -11 3 -20 10 -20 17 0 6 -4 6 -9 -3 -6
-9 -11 -10 -15 -2 -11 17 -29 13 -22 -4 3 -9 0 -15 -9 -15 -7 0 -16 9 -20 19
-3 11 -13 25 -22 33 -15 11 -16 11 -10 -4 3 -10 2 -20 -3 -23 -6 -4 -14 5 -20
19 -7 19 -17 26 -35 26 -27 0 -30 -6 -15 -30 8 -13 10 -12 10 3 0 9 5 17 10
17 6 0 10 -11 10 -25 0 -17 6 -25 18 -26 10 0 12 -3 5 -6 -15 -6 -117 40 -140
62 -8 9 -22 14 -29 11 -8 -3 -14 -1 -14 4 0 6 -7 10 -15 10 -21 0 -19 20 3 21
9 0 12 3 5 5 -7 3 -10 11 -7 18 3 7 -2 19 -11 26 -14 12 -16 10 -9 -13 4 -20
0 -37 -17 -62 -25 -37 -34 -42 -44 -25 -3 6 -15 10 -26 10 -12 0 -17 4 -13 11
4 8 0 9 -15 4 -16 -5 -20 -3 -15 9 4 11 0 16 -12 16 -17 0 -17 1 1 14 16 12
22 12 42 -1 13 -9 23 -11 23 -5 0 6 -9 14 -20 17 -11 3 -20 11 -20 16 0 15
-30 10 -36 -6 -4 -10 -15 -13 -33 -10 -14 3 -20 2 -13 -1 6 -3 12 -12 12 -21
0 -24 -60 -6 -98 31 -18 17 -36 30 -40 29 -4 -1 -6 19 -4 45 2 31 -3 63 -17
95 -20 46 -20 52 -6 101 11 38 16 109 18 259 2 190 3 207 20 207 25 0 21 14
-8 30 -26 14 -34 40 -12 40 7 0 5 5 -5 10 -9 6 -14 18 -11 29 3 10 -2 32 -11
49 -9 17 -16 49 -16 71 0 22 -4 43 -10 46 -13 8 -13 62 1 70 6 4 10 38 8 84
-1 42 5 116 14 165 10 49 17 102 17 118 0 16 5 39 11 50 6 11 13 39 15 62 2
22 9 66 15 96 8 37 9 103 4 205 -11 227 -11 228 3 231 7 1 8 0 2 -3 -5 -2 -10
-9 -10 -14 0 -19 20 2 54 56 47 72 69 116 62 122 -3 3 -10 -5 -15 -18 -7 -16
-10 -19 -10 -7 -1 9 7 23 17 30 32 24 44 56 30 78 -7 11 -18 20 -24 20 -7 0
-14 7 -18 15 -9 24 -26 17 -26 -10z m53 -38 c3 -8 1 -20 -4 -28 -6 -10 -9 -7
-9 14 0 29 5 35 13 14z m-1503 -67 c0 -5 -2 -10 -4 -10 -3 0 -8 5 -11 10 -3 6
-1 10 4 10 6 0 11 -4 11 -10z m-110 -25 c0 -2 -10 -10 -22 -16 -21 -11 -22
-11 -9 4 13 16 31 23 31 12z m64 -54 c-7 -7 -34 21 -28 31 3 5 12 1 19 -9 7
-10 12 -20 9 -22z m1487 -12 c-12 -13 -21 -27 -21 -33 0 -5 -3 -7 -6 -3 -3 3
4 20 16 37 12 17 24 29 27 26 3 -2 -4 -15 -16 -27z m-1604 -1 c-3 -8 -6 -5 -6
6 -1 11 2 17 5 13 3 -3 4 -12 1 -19z m60 -7 c7 -10 9 -21 7 -24 -8 -8 -44 25
-38 35 8 13 18 9 31 -11z m53 -21 c5 0 11 -7 14 -16 6 -15 4 -15 -16 -2 -13 9
-24 26 -25 39 l-3 24 12 -22 c6 -13 14 -23 18 -23z m44 31 c3 -5 -1 -14 -9
-21 -11 -9 -14 -8 -12 9 1 22 12 28 21 12z m-224 -43 c0 -11 -18 -10 -25 1 -6
11 -45 11 -42 0 1 -4 -2 -9 -7 -10 -5 -2 -11 6 -12 18 -3 16 2 23 19 25 21 3
66 -20 67 -34z m54 9 c-1 -9 1 -16 5 -15 3 0 17 0 30 -1 20 -1 21 -3 11 -16
-10 -13 -10 -19 4 -34 9 -10 16 -24 14 -31 -2 -7 8 -17 22 -21 l25 -7 -27 -1
c-22 -1 -29 5 -34 24 -3 14 -10 25 -15 25 -6 0 -5 -8 1 -19 15 -29 13 -31 -32
-30 -32 0 -38 2 -23 8 11 5 23 7 27 5 4 -3 10 1 13 7 4 6 -2 13 -14 16 -12 3
-21 10 -22 17 -3 43 -8 58 -23 75 -18 19 -17 20 10 18 20 -2 29 -8 28 -20z
m-48 -41 c20 -20 18 -24 -11 -22 -14 0 -25 2 -25 3 0 7 13 33 17 33 2 0 11 -6
19 -14z m190 -8 c-9 -5 -16 -16 -16 -23 0 -9 -10 -15 -25 -15 -28 0 -33 20
-11 43 9 9 26 12 42 9 22 -4 24 -6 10 -14z m1394 -37 c0 -6 -4 -13 -10 -16 -5
-3 -10 1 -10 9 0 9 5 16 10 16 6 0 10 -4 10 -9z m-1600 -21 c0 -5 -4 -10 -10
-10 -5 0 -10 5 -10 10 0 6 5 10 10 10 6 0 10 -4 10 -10z m-70 -14 c0 -2 -7 -7
-16 -10 -8 -3 -12 -2 -9 4 6 10 25 14 25 6z m56 -17 c3 -6 2 -15 -4 -21 -6 -6
-11 -2 -15 11 -5 22 7 29 19 10z m-72 -27 c-9 -2 -20 2 -25 10 -7 10 -9 9 -9
-4 0 -10 -7 -18 -15 -18 -19 0 -19 5 0 23 12 12 20 13 40 4 19 -9 21 -13 9
-15z m282 14 c10 -8 16 -17 12 -21 -9 -9 -68 17 -62 27 8 12 28 10 50 -6z
m1229 -16 c3 -5 1 -10 -4 -10 -6 0 -11 5 -11 10 0 6 2 10 4 10 3 0 8 -4 11
-10z m-1185 -25 c-7 -9 -10 -18 -6 -22 3 -3 6 -1 6 6 0 7 5 9 10 6 15 -9 12
-19 -15 -51 -19 -22 -27 -26 -37 -16 -6 6 -20 12 -30 12 -10 0 -18 5 -18 10 0
6 6 10 14 10 8 0 18 -4 21 -10 9 -15 35 -12 35 3 0 8 -19 19 -41 26 -29 9 -38
16 -31 23 6 6 16 7 24 2 23 -15 48 -14 48 0 0 8 6 16 13 19 18 7 21 -1 7 -18z
m-483 -7 c-3 -8 -6 -5 -6 6 -1 11 2 17 5 13 3 -3 4 -12 1 -19z m53 15 c0 -17
-19 -37 -27 -29 -4 5 -2 11 5 13 6 3 10 9 6 14 -3 5 0 9 5 9 6 0 11 -3 11 -7z
m296 0 c-3 -4 -17 -8 -29 -10 -17 -2 -19 -1 -7 7 17 11 47 14 36 3z m-152 -9
c20 -8 21 -34 2 -34 -8 0 -18 -4 -21 -10 -4 -6 1 -7 10 -3 13 4 16 1 13 -18
-2 -17 1 -23 11 -21 12 3 12 1 1 -13 -12 -15 -11 -15 13 -4 22 10 25 15 14 27
-11 13 -9 14 11 1 23 -14 29 -29 12 -29 -5 0 -7 -7 -4 -15 4 -8 15 -15 25 -15
18 0 25 -21 20 -60 -10 -80 -20 -142 -24 -147 -3 -2 -12 -6 -21 -7 -23 -3 -19
-21 4 -20 23 1 26 -11 5 -20 -17 -6 -60 33 -68 63 -4 18 -2 20 17 15 33 -8 29
22 -7 52 -34 29 -46 25 -23 -8 9 -12 16 -17 16 -10 0 7 5 10 10 7 6 -4 0 -15
-15 -27 -14 -11 -23 -24 -20 -29 4 -5 1 -9 -6 -9 -6 0 0 -11 15 -25 15 -14 29
-25 32 -25 12 0 30 -26 26 -38 -6 -18 9 -15 24 6 12 15 13 14 15 -13 3 -92 9
-143 17 -172 8 -26 8 -31 -4 -26 -8 3 -12 9 -9 13 8 13 -19 29 -63 36 -24 4
-40 9 -37 12 3 3 -2 14 -12 24 -9 11 -11 18 -5 18 28 0 8 30 -33 51 -42 21
-58 39 -35 39 6 0 10 -4 10 -10 0 -5 7 -10 16 -10 12 0 14 7 8 32 -6 30 -5 31
10 19 22 -18 33 -6 13 14 -9 8 -14 22 -11 29 3 8 1 17 -5 21 -14 8 -14 35 0
35 11 0 39 24 39 34 0 3 -6 6 -13 6 -7 0 -18 9 -24 19 -8 13 -19 18 -33 14
-20 -5 -50 11 -50 28 0 5 9 9 21 9 13 0 18 -4 13 -12 -4 -7 -3 -8 4 -4 6 4 20
2 30 -3 18 -10 26 -2 41 39 10 28 17 79 10 74 -5 -3 -9 -16 -9 -30 0 -13 -4
-24 -9 -24 -5 0 -8 -8 -7 -17 2 -27 -45 -28 -75 -3 -24 21 -24 22 -1 17 12 -3
22 -1 22 5 0 5 4 7 9 3 5 -3 13 0 17 6 8 13 -24 41 -37 33 -5 -3 -9 -1 -9 4 0
5 11 14 25 20 22 10 24 14 14 31 -17 26 -4 54 21 46 11 -4 20 -2 20 4 0 12 11
14 34 5z m-112 -26 c-6 -6 -15 -8 -19 -4 -4 4 -1 11 7 16 8 5 17 7 19 4 3 -2
-1 -10 -7 -16z m913 -7 c-3 -3 -10 0 -14 7 -9 15 -25 -19 -36 -77 -6 -27 -9
-31 -20 -20 -16 18 -30 73 -15 64 5 -3 10 -13 10 -21 0 -8 4 -14 9 -14 5 0 7
9 4 20 -8 29 35 74 54 58 7 -6 11 -13 8 -17z m-75 -1 c0 -5 -5 -10 -11 -10 -5
0 -7 5 -4 10 3 6 8 10 11 10 2 0 4 -4 4 -10z m716 1 c-7 -11 -46 -21 -46 -12
0 13 13 21 32 21 11 0 17 -4 14 -9z m131 -30 c0 -11 -5 -18 -9 -15 -4 3 -5 11
-1 19 7 21 12 19 10 -4z m-1417 -1 c0 -5 -8 -10 -17 -10 -15 0 -16 2 -3 10 19
12 20 12 20 0z m80 -51 c0 -16 -19 -10 -32 11 -14 21 -34 28 -22 8 5 -10 4
-10 -6 -1 -7 6 -9 16 -5 22 7 12 65 -23 65 -40z m-365 31 c3 -5 1 -10 -4 -10
-6 0 -11 5 -11 10 0 6 2 10 4 10 3 0 8 -4 11 -10z m985 0 c0 -5 -4 -10 -10
-10 -5 0 -10 5 -10 10 0 6 5 10 10 10 6 0 10 -4 10 -10z m-1136 -39 c3 -5 -1
-11 -9 -14 -9 -4 -12 -1 -8 9 6 16 10 17 17 5z m446 -26 c7 -8 16 -12 21 -9 5
3 9 -2 9 -10 0 -9 -2 -16 -5 -16 -12 0 -55 33 -55 41 0 14 16 11 30 -6z m-335
-55 c3 -5 1 -10 -4 -10 -6 0 -11 5 -11 10 0 6 2 10 4 10 3 0 8 -4 11 -10z
m355 -16 c0 -8 5 -14 10 -14 6 0 10 5 10 10 0 6 5 10 10 10 6 0 10 -7 10 -16
0 -8 -4 -13 -9 -10 -4 3 -15 -2 -24 -12 -12 -13 -13 -21 -6 -32 9 -12 10 -11
5 4 -6 17 -5 17 11 5 36 -28 41 -36 48 -76 4 -26 2 -43 -5 -48 -8 -5 -8 -11 1
-21 7 -9 9 -30 5 -59 -6 -34 -12 -45 -25 -45 -20 0 -47 51 -38 73 3 8 -6 26
-19 41 -26 28 -16 37 11 10 23 -23 32 -8 10 16 -16 18 -16 20 -1 26 9 3 16 11
16 16 0 6 -6 5 -15 -2 -8 -7 -15 -8 -15 -3 0 5 -13 8 -29 5 -27 -4 -28 -2 -35
47 -4 30 -2 59 3 69 10 15 10 15 11 -3 1 -15 3 -16 7 -5 8 19 35 40 45 34 5
-3 8 -12 8 -20z m-316 -75 c-8 -13 -24 -1 -24 18 0 13 3 13 15 3 8 -7 12 -16
9 -21z m746 1 c4 0 10 -6 13 -13 4 -11 -2 -12 -34 -3 -35 9 -50 31 -21 31 5 0
14 4 19 8 4 5 9 2 11 -7 2 -9 7 -16 12 -16z m750 14 c0 -8 -5 -12 -10 -9 -6 4
-8 11 -5 16 9 14 15 11 15 -7z m-2266 -10 c4 -10 1 -14 -6 -12 -15 5 -23 28
-10 28 5 0 13 -7 16 -16z m787 -43 c-13 -13 -21 -16 -24 -8 -2 7 6 17 17 23
29 15 31 9 7 -15z m-756 9 c3 -5 1 -10 -4 -10 -6 0 -11 5 -11 10 0 6 2 10 4
10 3 0 8 -4 11 -10z m672 -12 c-3 -8 -6 -5 -6 6 -1 11 2 17 5 13 3 -3 4 -12 1
-19z m-625 0 c-9 -9 -15 -9 -24 0 -9 9 -7 12 12 12 19 0 21 -3 12 -12z m1431
-8 c9 -10 9 -11 0 -6 -7 4 -13 2 -13 -3 0 -6 -9 -11 -19 -11 -20 0 -30 -23
-23 -53 3 -10 10 -16 17 -13 8 3 16 -2 19 -11 6 -14 9 -14 24 -2 9 8 27 20 40
27 20 11 22 10 22 -8 0 -11 6 -20 14 -20 23 0 31 22 12 35 -15 12 -15 13 3 18
31 8 34 -48 4 -81 -12 -14 -23 -33 -23 -43 0 -10 -4 -21 -10 -24 -5 -3 -10
-12 -10 -18 0 -7 9 2 20 18 30 46 24 17 -17 -82 -21 -48 -39 -81 -41 -72 -5
25 -39 31 -45 8 -3 -10 1 -20 9 -23 11 -4 12 -10 2 -32 -11 -23 -13 -24 -24
-9 -7 9 -33 31 -59 49 -39 28 -43 35 -28 40 17 7 17 8 -2 23 -19 14 -17 15 20
8 37 -6 39 -5 20 9 -11 8 -28 16 -38 16 -17 0 -17 1 0 25 23 31 33 31 34 3 1
-13 6 -3 11 22 7 31 7 45 -1 48 -19 6 -12 40 10 47 15 5 18 10 9 15 -15 9 -10
70 7 88 7 8 11 18 7 23 -8 14 35 5 49 -11z m225 -11 c-4 -12 -23 -13 -23 -1 0
4 -4 13 -9 20 -7 12 -4 12 13 2 12 -6 21 -16 19 -21z m-970 -33 c3 -20 0 -27
-10 -24 -7 3 -14 17 -16 32 -3 20 0 27 10 24 7 -3 14 -17 16 -32z m-38 0 c0
-27 -16 -44 -23 -24 -5 18 3 48 14 48 5 0 9 -11 9 -24z m300 14 c0 -5 -5 -10
-11 -10 -5 0 -7 5 -4 10 3 6 8 10 11 10 2 0 4 -4 4 -10z m-1019 -19 c-6 -10
-7 -22 -3 -27 4 -5 -1 -2 -11 5 -13 11 -15 17 -6 27 17 21 31 17 20 -5z m1536
8 c-9 -6 -15 -14 -12 -19 8 -13 -11 -21 -30 -14 -14 6 -12 10 12 25 15 11 33
19 38 19 6 -1 2 -5 -8 -11z m-117 -9 c0 -5 -2 -10 -4 -10 -3 0 -8 5 -11 10 -3
6 -1 10 4 10 6 0 11 -4 11 -10z m803 -7 c-7 -2 -21 -2 -30 0 -10 3 -4 5 12 5
17 0 24 -2 18 -5z m-2251 -48 c-11 -21 -25 -4 -16 20 4 10 10 13 16 7 7 -7 7
-16 0 -27z m1038 -1 c0 -8 5 -12 11 -8 8 4 9 0 4 -15 -4 -13 -2 -21 5 -21 17
0 90 -62 84 -71 -3 -5 0 -9 7 -9 8 0 8 -4 -1 -15 -10 -12 -10 -19 -2 -27 16
-16 15 -48 0 -48 -9 0 -9 -3 1 -9 12 -8 12 -12 2 -25 -10 -12 -10 -16 -2 -16
8 0 11 -11 9 -27 -2 -21 -8 -28 -24 -27 -19 0 -20 -2 -11 -18 7 -10 15 -18 19
-18 9 0 10 -85 2 -117 -4 -13 -14 -23 -25 -23 -24 0 -72 42 -74 66 -1 10 -6
27 -10 37 -5 12 -1 23 13 36 14 12 18 21 11 28 -5 5 -7 17 -3 27 5 14 9 14 22
4 14 -12 14 -10 2 12 -18 32 -20 60 -6 84 8 14 8 20 -1 23 -24 9 -64 193 -42
193 5 0 9 -7 9 -16z m785 -113 c9 -44 15 -92 13 -107 -3 -27 -4 -27 -20 -10
-10 10 -18 15 -18 11 0 -4 -8 1 -17 10 -12 13 -14 21 -6 34 8 12 7 22 -3 36
-12 17 -14 17 -14 2 0 -9 -4 -17 -10 -17 -5 0 -10 7 -10 15 0 8 -4 15 -10 15
-15 0 -12 29 5 46 13 13 14 12 9 -15 -5 -26 -4 -30 15 -28 22 1 29 21 11 32
-6 4 -7 11 -4 17 4 6 0 14 -7 19 -12 7 -12 10 0 21 10 10 12 10 7 1 -4 -8 -1
-13 8 -13 11 0 16 10 17 28 0 26 1 26 9 4 5 -12 17 -58 25 -101z m-131 92 c25
-21 24 -33 -11 -126 -18 -46 -31 -66 -40 -63 -16 7 -43 -3 -43 -15 0 -5 7 -9
15 -9 20 0 19 -34 -2 -51 -11 -10 -14 -10 -9 -1 4 6 3 12 -3 12 -16 0 -26 -23
-12 -28 8 -3 5 -9 -8 -19 -12 -8 -21 -23 -21 -34 0 -10 -7 -19 -15 -19 -32 0
1 93 37 104 19 6 20 8 6 14 -15 6 -14 13 8 67 14 33 32 74 40 92 8 17 14 36
14 42 0 6 4 11 9 11 5 0 7 -9 4 -20 -4 -14 0 -20 11 -20 13 0 17 7 14 28 -2
15 -8 26 -15 25 -7 -2 -13 4 -13 12 0 19 7 19 34 -2z m-844 -23 c0 -5 -4 -10
-10 -10 -5 0 -10 5 -10 10 0 6 5 10 10 10 6 0 10 -4 10 -10z m270 -23 c0 -5
-4 -5 -10 -2 -5 3 -10 14 -10 23 0 15 2 15 10 2 5 -8 10 -19 10 -23z m-300 19
c0 -3 -4 -8 -10 -11 -5 -3 -10 -1 -10 4 0 6 5 11 10 11 6 0 10 -2 10 -4z m13
-72 c2 -13 0 -21 -4 -18 -5 3 -9 0 -9 -5 0 -17 -17 -13 -25 6 -3 10 -1 19 5
21 8 3 8 8 0 17 -9 11 -7 12 8 8 11 -3 22 -16 25 -29z m27 16 c0 -5 -2 -10 -4
-10 -3 0 -8 5 -11 10 -3 6 -1 10 4 10 6 0 11 -4 11 -10z m503 3 c-7 -2 -13
-11 -13 -19 0 -9 4 -13 9 -9 5 3 12 1 16 -5 3 -5 1 -10 -5 -10 -7 0 -10 -7 -6
-15 3 -8 2 -24 -2 -35 -7 -19 -7 -19 -37 0 -16 11 -30 28 -30 37 0 22 42 63
64 62 10 0 12 -2 4 -6z m-399 -48 c11 -8 17 -17 14 -20 -7 -8 -68 15 -68 26 0
14 33 10 54 -6z m-188 -17 c-2 -13 1 -32 7 -43 6 -11 12 -22 13 -25 0 -3 4
-12 7 -20 26 -61 27 -72 10 -68 -12 2 -18 13 -18 33 0 19 -5 29 -13 27 -8 -1
-12 8 -12 25 0 16 -2 43 -6 61 -4 20 -2 32 5 32 6 0 9 -10 7 -22z m-93 6 c7
-8 -16 -33 -25 -28 -9 6 1 34 11 34 4 0 10 -3 14 -6z m553 -16 c4 -7 3 -8 -4
-4 -7 4 -12 2 -12 -5 0 -7 -3 -10 -6 -6 -6 5 3 27 11 27 2 0 7 -5 11 -12z
m-395 -46 c-7 -2 -6 -13 4 -32 17 -32 20 -70 6 -70 -7 0 -41 86 -41 104 0 2 8
12 18 22 16 17 17 17 21 -1 2 -11 -2 -21 -8 -23z m882 -17 c0 -25 3 -42 8 -39
5 3 7 10 4 15 -4 5 -1 9 6 9 7 0 9 3 6 7 -8 7 11 33 24 33 5 0 2 -11 -7 -25
-9 -14 -13 -25 -9 -25 4 0 0 -11 -9 -25 -18 -28 -10 -35 9 -8 12 16 14 16 29
1 9 -9 16 -24 16 -32 0 -21 16 -21 24 0 5 13 8 13 20 2 7 -8 16 -24 20 -36 6
-17 4 -21 -9 -16 -9 4 -15 3 -14 -2 4 -25 -2 -54 -11 -49 -16 10 -12 -11 5
-25 8 -7 12 -16 9 -21 -9 -15 -24 -10 -24 7 0 9 -5 12 -12 8 -6 -4 -8 -3 -5 3
4 6 -2 13 -13 16 -11 3 -20 2 -20 -2 0 -4 -13 -6 -30 -3 -16 2 -30 0 -30 -4 0
-5 -34 -9 -75 -10 -77 -1 -89 5 -56 28 10 8 21 25 23 38 1 13 14 30 26 36 17
8 20 14 12 19 -9 6 -8 10 4 17 9 5 14 13 11 19 -8 12 2 12 26 -1 20 -11 26 -1
8 17 -6 6 -13 24 -15 41 -4 27 -2 32 20 38 16 4 23 11 19 18 -3 6 -2 8 2 3 5
-4 8 -27 8 -52z m-979 20 c10 -28 -5 -45 -39 -45 -39 0 -51 12 -30 30 8 7 13
15 11 19 -2 3 9 7 24 8 17 1 30 -4 34 -12z m249 9 c3 -4 1 -16 -4 -27 -9 -16
-13 -17 -20 -6 -13 21 -11 39 4 39 8 0 17 -3 20 -6z m280 -1 c-7 -2 -19 -2
-25 0 -7 3 -2 5 12 5 14 0 19 -2 13 -5z m53 -22 c2 -8 1 -8 -3 0 -4 8 -7 8
-13 -1 -5 -9 -9 -8 -13 3 -4 10 0 14 11 13 9 -2 17 -8 18 -15z m-86 -1 c0 -6
10 -14 22 -19 l22 -8 -22 -12 c-17 -9 -22 -9 -22 0 0 7 -2 10 -5 7 -10 -10 7
-58 17 -52 6 4 9 1 6 -6 -7 -23 -29 -23 -35 -1 -4 16 -9 19 -23 11 -14 -8 -19
-5 -22 15 -3 14 -1 25 3 25 5 0 9 8 9 18 0 10 3 22 7 25 10 11 43 8 43 -3z
m-304 -35 c13 -27 9 -36 -12 -28 -14 5 -20 53 -6 53 4 0 12 -11 18 -25z m478
-1 c-5 -19 -4 -25 5 -20 6 4 9 12 6 17 -4 5 -1 9 4 9 12 0 15 -73 4 -84 -4 -4
-6 -24 -4 -44 2 -30 -5 -47 -32 -82 -41 -55 -77 -120 -56 -104 8 6 25 8 39 4
22 -6 20 -8 -18 -14 -24 -5 -46 -14 -48 -21 -7 -16 -44 -7 -45 11 -2 18 -3 24
-13 53 -6 18 0 41 25 95 45 93 50 98 71 73 18 -20 18 -20 18 6 0 17 -5 27 -15
27 -23 0 -18 15 10 30 27 14 31 25 14 35 -6 5 -4 12 8 21 27 20 34 17 27 -12z
m-409 -5 c-4 -6 0 -9 11 -7 11 2 19 -3 19 -11 0 -8 -10 -15 -22 -16 -22 -2
-32 22 -16 38 10 11 15 8 8 -4z m524 -45 c-11 -27 -21 -56 -22 -65 -1 -9 -7
-15 -14 -12 -8 3 -13 -3 -14 -18 0 -13 -9 -44 -19 -69 l-19 -45 0 38 c-1 21 4
37 10 37 7 0 10 13 7 34 -2 19 0 34 5 33 5 -1 11 3 14 10 3 7 -3 9 -16 6 -12
-3 -21 -1 -21 6 0 7 10 10 25 7 22 -4 29 2 51 46 32 63 42 57 13 -8z m-749 2
c0 -8 -9 -16 -20 -19 -23 -6 -24 -3 -9 24 11 21 29 17 29 -5z m124 16 c2 -4
-4 -13 -15 -20 -16 -11 -19 -9 -19 8 0 19 24 28 34 12z m407 -35 c-8 -8 -11
-7 -11 4 0 9 3 19 7 23 4 4 9 2 11 -4 3 -7 -1 -17 -7 -23z m-752 -6 c-3 -6
-10 -7 -18 -2 -7 5 -10 14 -6 21 9 14 29 -2 24 -19z m939 17 c-5 -13 -48 -19
-48 -7 0 4 10 10 23 12 12 2 24 5 25 6 2 0 2 -4 0 -11z m-872 -25 c-14 -30
-24 -29 -22 1 0 15 7 24 17 23 12 -1 13 -5 5 -24z m288 11 c9 -3 13 -10 10
-15 -3 -5 -10 -7 -15 -4 -5 4 -9 0 -9 -7 0 -10 -3 -9 -9 2 -6 8 -7 18 -5 22 6
10 8 10 28 2z m273 -16 c-3 -8 -6 -5 -6 6 -1 11 2 17 5 13 3 -3 4 -12 1 -19z
m413 3 c0 -6 -4 -13 -10 -16 -5 -3 -10 1 -10 9 0 9 5 16 10 16 6 0 10 -4 10
-9z m-742 -41 c11 -22 16 -43 11 -46 -5 -3 -12 3 -16 12 -3 10 -15 26 -25 36
-18 18 -17 38 2 38 4 0 17 -18 28 -40z m-68 20 c0 -5 -2 -10 -4 -10 -3 0 -8 5
-11 10 -3 6 -1 10 4 10 6 0 11 -4 11 -10z m400 -10 c0 -5 -2 -10 -4 -10 -3 0
-8 5 -11 10 -3 6 -1 10 4 10 6 0 11 -4 11 -10z m-187 -20 c-4 -16 -8 -18 -20
-9 -11 10 -11 14 -1 20 21 14 26 10 21 -11z m-577 -27 c-11 -11 -17 4 -9 23 7
18 8 18 11 1 2 -10 1 -21 -2 -24z m1134 11 c0 -8 -4 -12 -10 -9 -5 3 -10 13
-10 21 0 8 5 12 10 9 6 -3 10 -13 10 -21z m335 5 c-4 -5 -2 -9 3 -9 6 0 12 -7
16 -15 4 -10 -1 -15 -14 -15 -16 0 -20 7 -20 31 0 18 4 28 10 24 6 -4 8 -11 5
-16z m-1090 -16 c3 -16 11 -45 16 -67 17 -62 0 -63 -79 -4 -63 47 -70 54 -55
66 9 6 31 12 49 12 18 0 36 5 39 10 11 18 25 10 30 -17z m1062 -20 c-4 -17 -4
-17 -12 0 -4 9 -4 25 0 35 8 16 8 16 12 0 3 -10 3 -26 0 -35z m-350 15 c-3 -8
-6 -5 -6 6 -1 11 2 17 5 13 3 -3 4 -12 1 -19z m-712 -130 c6 -6 4 -13 -8 -19
-9 -6 -15 -14 -12 -20 9 -14 -7 -10 -29 6 -21 16 -71 21 -62 6 3 -4 -6 -6 -19
-3 -29 5 -44 22 -21 22 23 0 20 43 -3 57 -11 7 -21 9 -23 4 -5 -12 -58 -23
-58 -12 0 16 50 50 66 44 8 -3 14 1 14 11 0 9 -4 16 -8 16 -5 0 -9 6 -9 14 0
11 110 -70 172 -126z m125 132 c-10 -6 -11 -10 -2 -10 6 0 12 -8 12 -18 0 -10
6 -24 13 -31 10 -10 9 -11 -3 -6 -22 8 -51 63 -37 69 21 8 32 6 17 -4z m76
-28 c-6 -5 -36 23 -36 34 0 4 9 -1 20 -11 11 -10 18 -20 16 -23z m-167 -14 c1
-5 -3 -8 -9 -8 -5 0 -10 12 -9 28 0 24 1 25 9 7 5 -11 9 -23 9 -27z m361 27
c0 -7 7 -18 16 -23 19 -10 10 -35 -25 -66 -21 -19 -21 -19 -21 11 0 44 11 93
21 93 5 0 9 -7 9 -15z m-670 -5 c0 -5 -2 -10 -4 -10 -3 0 -8 5 -11 10 -3 6 -1
10 4 10 6 0 11 -4 11 -10z m523 -22 c-2 -4 -10 -2 -17 5 -8 6 -12 15 -9 19 2
4 10 2 17 -5 8 -6 12 -15 9 -19z m-796 0 c-3 -8 -6 -5 -6 6 -1 11 2 17 5 13 3
-3 4 -12 1 -19z m91 10 c-8 -7 -20 -22 -26 -33 -7 -13 -12 -15 -12 -6 0 17 29
51 43 51 6 0 4 -6 -5 -12z m541 2 c7 0 41 -76 41 -92 0 -3 -9 -8 -19 -11 -21
-5 -42 27 -57 87 -6 25 -5 28 10 23 10 -4 21 -7 25 -7z m362 -17 c-12 -20 -14
-14 -5 12 4 9 9 14 11 11 3 -2 0 -13 -6 -23z m-685 -31 c-11 -11 -16 -12 -16
-4 0 7 -4 10 -10 7 -5 -3 -10 -1 -10 5 0 7 8 9 21 5 15 -5 19 -4 15 4 -4 6
-17 11 -29 12 -21 0 -21 1 -2 8 12 5 25 3 34 -6 12 -12 12 -17 -3 -31z m864
10 c0 -34 -3 -38 -35 -48 -19 -6 -35 -8 -35 -4 0 7 60 90 66 90 2 0 4 -17 4
-38z m-1414 -10 c-10 -10 -29 15 -21 28 6 9 10 8 17 -4 6 -10 7 -20 4 -24z
m1549 28 c3 -6 -4 -10 -17 -10 -18 0 -20 2 -8 10 19 12 18 12 25 0z m-1595 -4
c0 -3 -4 -8 -10 -11 -5 -3 -10 -1 -10 4 0 6 5 11 10 11 6 0 10 -2 10 -4z m417
-22 c-9 -9 -28 6 -21 18 4 6 10 6 17 -1 6 -6 8 -13 4 -17z m123 10 c0 -8 -4
-12 -10 -9 -5 3 -10 10 -10 16 0 5 5 9 10 9 6 0 10 -7 10 -16z m966 -10 c-4
-9 -9 -15 -11 -12 -3 3 -3 13 1 22 4 9 9 15 11 12 3 -3 3 -13 -1 -22z m-626
-4 c0 -5 -2 -10 -4 -10 -3 0 -8 5 -11 10 -3 6 -1 10 4 10 6 0 11 -4 11 -10z
m281 -13 c-1 -12 -15 -9 -19 4 -3 6 1 10 8 8 6 -3 11 -8 11 -12z m361 -9 c-7
-7 -12 -8 -12 -2 0 6 3 14 7 17 3 4 9 5 12 2 2 -3 -1 -11 -7 -17z m-994 -28
c11 -30 7 -35 -22 -24 -12 5 -13 10 -5 25 5 11 7 25 3 31 -4 6 -3 8 3 5 6 -4
16 -20 21 -37z m732 30 c0 -5 -5 -10 -11 -10 -5 0 -7 5 -4 10 3 6 8 10 11 10
2 0 4 -4 4 -10z m670 -5 c0 -8 -4 -15 -10 -15 -5 0 -10 7 -10 15 0 8 5 15 10
15 6 0 10 -7 10 -15z m-800 -5 c0 -5 -4 -10 -10 -10 -5 0 -10 5 -10 10 0 6 5
10 10 10 6 0 10 -4 10 -10z m-503 -30 c14 0 29 -19 38 -50 7 -24 7 -24 -12 -7
-11 9 -23 17 -27 17 -13 0 -33 25 -41 50 -7 24 -7 24 12 8 11 -10 24 -18 30
-18z m657 -2 c3 -13 6 -27 6 -33 -1 -15 -30 27 -30 42 0 22 17 15 24 -9z m-44
2 c0 -5 -2 -10 -4 -10 -3 0 -8 5 -11 10 -3 6 -1 10 4 10 6 0 11 -4 11 -10z
m1000 -11 c7 -11 13 -35 16 -52 3 -26 2 -29 -10 -16 -12 13 -30 89 -21 89 2 0
9 -9 15 -21z m-1807 2 c19 9 18 7 -3 -10 -29 -24 -40 -26 -40 -8 0 18 14 31
18 18 3 -8 10 -8 25 0z m130 -21 c-4 -14 1 -22 18 -29 15 -5 25 -5 28 1 4 12
41 -21 41 -38 0 -25 -46 -60 -76 -58 -16 1 -30 2 -31 3 -2 0 -6 0 -10 -1 -4
-2 -10 10 -14 26 -8 28 6 69 33 104 14 17 17 15 11 -8z m607 10 c0 -5 -9 -10
-20 -10 -11 0 -20 5 -20 10 0 6 9 10 20 10 11 0 20 -4 20 -10z m473 -15 c-3
-9 -8 -14 -10 -11 -3 3 -2 9 2 15 9 16 15 13 8 -4z m244 -12 c-6 -13 -13 -23
-17 -23 -5 0 -7 -8 -6 -17 1 -12 -7 -19 -24 -21 -20 -2 -22 -1 -10 7 12 9 11
11 -8 11 -29 0 -24 24 5 28 15 2 19 8 16 22 -4 16 0 19 25 17 27 -2 28 -4 19
-24z m-477 -5 c0 -5 0 -12 0 -17 0 -5 -9 -11 -21 -14 -12 -3 -18 -10 -14 -17
5 -7 0 -7 -13 1 -14 9 -18 17 -12 25 6 6 7 14 4 17 -3 3 -3 10 0 15 7 11 56 2
56 -10z m530 12 c0 -5 -7 -10 -15 -10 -8 0 -15 5 -15 10 0 6 7 10 15 10 8 0
15 -4 15 -10z m-260 -6 c0 -9 -32 -33 -44 -34 -5 0 -1 9 9 20 18 20 35 26 35
14z m-1640 -19 c0 -8 -6 -15 -14 -15 -20 0 -29 17 -14 23 22 9 28 7 28 -8z
m815 5 c3 -5 2 -10 -4 -10 -5 0 -13 5 -16 10 -3 6 -2 10 4 10 5 0 13 -4 16
-10z m663 -7 c-4 -22 -22 -20 -26 1 -2 10 3 16 13 16 10 0 15 -7 13 -17z m424
-28 c2 -19 1 -35 -3 -35 -4 0 -5 -8 -2 -19 3 -14 -2 -20 -21 -23 -14 -3 -23
-1 -20 3 3 5 12 9 20 9 8 0 14 5 14 10 0 6 -6 10 -12 10 -9 0 -8 4 2 11 12 8
9 10 -12 6 -31 -5 -33 0 -16 38 17 38 45 33 50 -10z m-325 19 c-3 -3 -12 -4
-19 -1 -8 3 -5 6 6 6 11 1 17 -2 13 -5z m-895 -46 c-7 -7 -12 -8 -12 -2 0 14
12 26 19 19 2 -3 -1 -11 -7 -17z m1522 7 c3 -8 1 -15 -4 -15 -6 0 -10 7 -10
15 0 8 2 15 4 15 2 0 6 -7 10 -15z m-761 -16 c-4 -15 0 -27 12 -35 22 -16 39
-18 30 -4 -3 6 -1 10 4 10 14 0 14 -17 0 -26 -6 -3 -8 -16 -5 -28 5 -19 1 -21
-44 -21 -33 0 -50 4 -50 13 0 6 12 12 28 12 l27 1 -31 13 c-45 20 -48 32 -15
52 17 10 28 21 25 26 -3 4 1 8 9 8 11 0 13 -7 10 -21z m-1003 -19 c0 -5 -2
-10 -4 -10 -3 0 -8 5 -11 10 -3 6 -1 10 4 10 6 0 11 -4 11 -10z m557 -21 c-5
-17 -2 -20 13 -16 13 3 17 0 13 -9 -3 -8 1 -16 9 -19 10 -4 13 -15 10 -31 -4
-23 -6 -23 -21 -10 -10 9 -35 16 -57 15 -82 -1 -101 9 -83 43 7 14 22 18 59
18 38 0 50 4 50 15 0 8 3 15 6 15 4 0 4 -9 1 -21z m-609 -16 c6 -19 -25 -16
-32 3 -4 11 -1 14 11 12 9 -2 18 -9 21 -15z m432 -11 c0 -13 -36 -43 -42 -36
-4 3 1 14 10 24 18 20 32 25 32 12z m1428 -59 c3 -48 1 -51 -18 -46 -15 4 -20
1 -20 -16 0 -11 -4 -21 -10 -21 -11 0 -14 98 -4 125 4 9 15 15 28 13 18 -3 21
-11 24 -55z m-1563 37 c3 -5 -1 -10 -9 -10 -9 0 -16 5 -16 10 0 6 4 10 9 10 6
0 13 -4 16 -10z m135 -26 c0 -8 -5 -12 -10 -9 -6 4 -8 11 -5 16 9 14 15 11 15
-7z m564 -10 c8 -20 -28 -22 -49 -2 -19 18 -19 19 13 16 17 -1 34 -8 36 -14z
m536 5 c0 -6 -9 -8 -19 -4 -11 3 -26 -1 -35 -10 -17 -17 -22 -30 -8 -21 12 7
53 -24 47 -35 -4 -5 -12 -9 -18 -9 -8 0 -8 3 2 9 16 11 2 21 -25 17 -20 -3
-45 29 -38 48 6 14 94 18 94 5z m-380 -8 c0 -3 -8 -11 -18 -17 -13 -8 -20 -8
-29 1 -7 7 -10 14 -8 16 6 7 55 7 55 0z m-270 -36 c14 -2 42 -4 63 -4 24 -1
36 -5 32 -12 -4 -6 -14 -8 -22 -4 -19 7 -55 -4 -48 -14 2 -5 -10 -11 -28 -14
-17 -3 -45 -10 -61 -16 -28 -11 -28 -12 -10 -26 10 -8 14 -15 8 -15 -6 0 -14
3 -18 8 -9 9 -66 10 -66 1 0 -4 -16 -9 -35 -11 -23 -3 -34 0 -31 7 2 6 -8 10
-23 10 -19 0 -26 5 -26 20 0 11 6 21 13 21 6 1 17 2 23 3 5 0 8 5 4 10 -3 6 4
19 16 30 19 18 31 20 103 15 45 -3 92 -7 106 -9z m-620 -45 c0 -5 -4 -10 -10
-10 -5 0 -10 5 -10 10 0 6 5 10 10 10 6 0 10 -4 10 -10z m324 -6 c3 -8 2 -12
-4 -9 -6 3 -10 10 -10 16 0 14 7 11 14 -7z m1280 -6 c3 -13 6 -40 6 -60 0 -34
-3 -38 -25 -38 -14 0 -25 -5 -25 -11 0 -7 10 -9 25 -7 23 5 25 2 25 -34 0 -54
19 -125 47 -175 33 -59 30 -102 -10 -133 -17 -14 -28 -19 -24 -12 5 6 4 12 -1
12 -6 0 -12 7 -15 14 -4 11 -1 13 11 9 15 -6 15 -5 3 11 -20 24 -40 3 -23 -24
6 -11 12 -28 12 -37 0 -14 -3 -14 -16 5 -8 12 -24 22 -35 22 -15 0 -19 5 -14
19 4 13 0 20 -15 24 -11 3 -20 0 -21 -6 -1 -7 -5 4 -10 23 -7 29 -4 46 19 95
25 55 27 71 27 180 0 95 3 123 15 132 23 19 37 15 44 -9z m-1394 -8 c0 -5 -4
-10 -10 -10 -5 0 -10 5 -10 10 0 6 5 10 10 10 6 0 10 -4 10 -10z m34 -15 c-4
-8 -11 -15 -16 -15 -6 0 -5 6 2 15 7 8 14 15 16 15 2 0 1 -7 -2 -15z m1034
-41 c12 -39 7 -64 -12 -64 -7 0 -23 -21 -35 -46 -22 -43 -22 -46 -5 -65 17
-18 16 -20 -4 -42 -12 -13 -22 -28 -22 -34 0 -6 -21 -16 -46 -23 -39 -11 -47
-11 -55 1 -7 11 -16 6 -44 -24 -19 -21 -40 -35 -45 -32 -6 3 -10 0 -10 -8 0
-8 -7 -20 -15 -27 -18 -15 -20 1 -3 18 16 16 5 15 -37 -2 -19 -8 -35 -22 -35
-30 0 -9 -7 -16 -15 -16 -9 0 -18 -7 -21 -15 -4 -8 -11 -15 -16 -15 -6 0 -8 7
-4 15 4 10 -1 14 -17 14 -12 -1 -30 2 -39 6 -11 4 -18 3 -18 -4 0 -6 5 -11 10
-11 15 0 12 -17 -6 -35 -11 -11 -25 -14 -42 -10 -20 5 -23 4 -15 -7 9 -11 -5
-13 -75 -13 -48 0 -116 -3 -152 -8 -44 -6 -66 -5 -68 2 -2 6 -10 11 -18 11 -8
0 -14 5 -14 10 0 6 15 10 33 10 27 1 29 2 14 11 -14 8 -16 14 -6 25 11 14 10
15 -13 18 -9 1 -12 15 -10 40 2 25 -1 36 -7 31 -6 -3 -11 -2 -11 4 0 5 9 12
19 16 21 6 35 31 22 39 -5 3 -16 -3 -25 -13 -15 -16 -27 -18 -79 -14 -34 3
-69 11 -77 18 -8 7 -21 10 -27 8 -14 -5 -17 6 -5 22 9 13 65 14 73 2 4 -5 23
-1 44 9 37 17 38 17 53 -2 14 -19 15 -19 8 0 -7 19 -6 19 14 1 22 -20 26 -14
10 16 -6 10 -20 19 -30 19 -21 0 -27 15 -10 25 6 3 10 16 9 28 l0 22 -9 -22
c-6 -15 -15 -21 -25 -17 -19 8 -20 44 0 44 29 0 15 15 -16 17 -26 2 -29 -1
-24 -17 5 -15 2 -20 -12 -21 -12 0 -7 -6 15 -16 34 -18 42 -33 17 -33 -8 0
-15 6 -15 13 0 9 -2 9 -9 -1 -6 -10 -10 -10 -21 3 -7 9 -21 13 -31 10 -10 -4
-27 -1 -36 5 -16 10 -15 10 4 5 12 -3 24 -1 27 4 4 5 -13 14 -36 19 -24 5 -42
14 -41 20 2 7 -4 12 -12 12 -9 0 -18 7 -21 15 -4 10 -13 13 -25 10 -31 -10
-21 5 13 19 24 10 38 11 56 3 17 -8 25 -8 30 0 8 12 45 20 142 29 36 3 108 10
160 15 52 6 183 12 290 15 107 3 233 9 280 13 165 16 165 16 178 -25z m-891
10 c-3 -3 -12 -4 -19 -1 -8 3 -5 6 6 6 11 1 17 -2 13 -5z m-287 -66 c0 -10 0
-10 -70 -13 -30 -1 -46 0 -35 2 11 3 23 8 28 12 10 10 77 9 77 -1z m-85 -49
c5 -14 2 -25 -6 -30 -19 -12 -32 -11 -24 1 3 6 -2 10 -13 10 -29 0 -34 12 -9
26 33 18 45 16 52 -7z m38 -15 c-7 -19 -23 -7 -23 18 0 17 3 18 14 8 8 -6 12
-18 9 -26z m-288 -3 c-8 -14 -35 -14 -35 0 0 6 7 9 15 5 8 -3 15 0 15 6 0 6 3
9 6 5 3 -3 3 -10 -1 -16z m335 3 c0 -8 -6 -11 -15 -8 -8 4 -15 9 -15 13 0 4 7
8 15 8 8 0 15 -6 15 -13z m3488 -52 c-15 -2 -36 2 -48 8 -13 7 -20 7 -20 0 0
-5 -5 -10 -10 -10 -6 0 -6 7 2 19 11 18 14 18 57 2 41 -14 43 -16 19 -19z
m-3458 -12 c0 -5 -4 -10 -10 -10 -5 0 -10 5 -10 10 0 6 5 10 10 10 6 0 10 -4
10 -10z m150 0 c0 -13 -28 -25 -38 -16 -3 4 0 11 8 16 20 13 30 12 30 0z m-56
-25 c-4 -8 -10 -15 -15 -15 -5 0 -9 7 -9 15 0 8 7 15 15 15 9 0 12 -6 9 -15z
m3345 -66 c6 -17 8 -35 5 -40 -3 -5 0 -9 5 -9 6 0 11 9 11 20 0 18 3 19 20 10
37 -20 23 -37 -36 -43 -40 -4 -60 -2 -70 7 -16 17 -8 26 23 26 23 0 31 14 13
25 -10 6 -2 35 10 35 4 0 13 -14 19 -31z m141 1 c0 -5 -2 -10 -4 -10 -3 0 -8
5 -11 10 -3 6 -1 10 4 10 6 0 11 -4 11 -10z m-3935 -10 c3 -5 -1 -10 -9 -10
-9 0 -16 5 -16 10 0 6 4 10 9 10 6 0 13 -4 16 -10z m591 -25 l29 -15 -32 0
c-23 0 -33 5 -33 15 0 18 1 18 36 0z m817 3 c-13 -6 -23 -15 -23 -20 0 -4 -4
-8 -10 -8 -5 0 -10 4 -10 8 0 10 38 31 55 31 6 0 0 -5 -12 -11z m2002 2 c8
-13 -5 -13 -25 0 -13 8 -13 10 2 10 9 0 20 -4 23 -10z m495 -16 c0 -8 -5 -12
-10 -9 -6 4 -8 11 -5 16 9 14 15 11 15 -7z m-3375 -3 c-18 -7 -55 -4 -55 5 0
2 17 4 38 3 28 0 32 -2 17 -8z m-106 -37 c-10 -9 -19 -10 -29 -4 -12 8 -11 11
8 16 12 4 22 11 23 18 0 6 3 5 6 -2 3 -8 -1 -20 -8 -28z m69 -2 c-10 -2 -18
-9 -18 -15 0 -8 -4 -7 -9 2 -5 8 -7 20 -4 27 4 11 9 11 26 2 19 -11 20 -13 5
-16z m692 -11 c0 -5 -7 -12 -16 -15 -24 -9 -28 -7 -14 9 14 17 30 20 30 6z
m2455 -12 c11 -17 -2 -22 -40 -15 -19 4 -33 11 -30 17 8 12 62 12 70 -2z m72
-21 c41 -15 46 -41 6 -32 -29 7 -55 24 -37 24 5 0 2 5 -6 10 -21 13 -3 12 37
-2z m-2590 -30 c-3 -7 -5 -2 -5 12 0 14 2 19 5 13 2 -7 2 -19 0 -25z m30 10
c-3 -8 -6 -5 -6 6 -1 11 2 17 5 13 3 -3 4 -12 1 -19z m110 16 c-3 -3 -12 -4
-19 -1 -8 3 -5 6 6 6 11 1 17 -2 13 -5z m2003 -10 c0 -2 -7 -4 -15 -4 -8 0
-15 4 -15 10 0 5 7 7 15 4 8 -4 15 -8 15 -10z m-1470 -4 c0 -5 -4 -10 -10 -10
-5 0 -10 5 -10 10 0 6 5 10 10 10 6 0 10 -4 10 -10z m-750 -16 c0 -8 -5 -12
-10 -9 -6 4 -8 11 -5 16 9 14 15 11 15 -7z m63 -49 c-3 -9 -8 -14 -10 -11 -3
3 -2 9 2 15 9 16 15 13 8 -4z m-243 -5 c0 -5 -5 -10 -11 -10 -5 0 -7 5 -4 10
3 6 8 10 11 10 2 0 4 -4 4 -10z m214 -25 c9 -23 -58 -42 -82 -22 -10 8 -9 13
3 27 17 19 71 16 79 -5z m1056 5 c-9 -16 -8 -20 5 -20 8 0 15 -5 15 -11 0 -5
-4 -7 -10 -4 -5 3 -10 0 -11 -7 0 -7 -4 -3 -9 10 -10 24 -4 52 11 52 6 0 5 -9
-1 -20z m-1187 -5 c-3 -9 -8 -14 -10 -11 -3 3 -2 9 2 15 9 16 15 13 8 -4z
m2197 -5 c0 -5 -7 -10 -15 -10 -8 0 -15 5 -15 10 0 6 7 10 15 10 8 0 15 -4 15
-10z m-2155 -40 c3 -5 -1 -10 -9 -10 -9 0 -16 5 -16 10 0 6 4 10 9 10 6 0 13
-4 16 -10z m115 -15 c0 -2 -14 -12 -31 -20 -19 -11 -29 -22 -25 -31 3 -8 1
-14 -4 -14 -6 0 -10 5 -10 11 0 5 -4 8 -9 5 -16 -10 -41 5 -41 24 0 11 9 20
23 23 32 6 97 8 97 2z m0 -47 c0 -13 -23 -5 -28 10 -2 7 2 10 12 6 9 -3 16
-11 16 -16z m122 -12 c3 3 9 0 13 -6 4 -7 -5 -10 -29 -8 -31 2 -36 6 -36 27
l0 24 23 -21 c13 -12 26 -20 29 -16z m58 -6 c0 -5 -4 -10 -10 -10 -5 0 -10 5
-10 10 0 6 5 10 10 10 6 0 10 -4 10 -10z m-284 -30 c8 0 14 6 14 13 0 8 4 7
10 -3 5 -8 10 -19 10 -25 0 -5 -4 -4 -9 4 -6 9 -10 10 -16 2 -8 -14 -36 4 -34
23 0 7 2 6 6 -1 2 -7 11 -13 19 -13z m97 13 c-7 -2 -19 -2 -25 0 -7 3 -2 5 12
5 14 0 19 -2 13 -5z m102 -23 c0 -8 -11 -20 -25 -27 -22 -11 -23 -13 -5 -13
17 -1 17 -3 -5 -11 -37 -15 -73 -7 -76 16 -2 11 -8 21 -13 23 -22 7 -10 22 13
16 13 -3 27 -1 31 6 10 17 80 8 80 -10z m86 -33 c-6 -6 -12 -20 -12 -31 -1
-17 -2 -18 -6 -4 -3 14 -12 17 -39 13 -19 -2 -34 0 -34 5 0 6 7 10 15 10 10 0
15 7 13 18 -2 12 4 17 19 17 12 0 25 4 29 8 5 4 12 0 17 -9 6 -10 5 -20 -2
-27z m59 0 c0 -20 -25 1 -28 24 -2 23 -2 23 13 5 8 -11 15 -24 15 -29z m1240
33 c0 -5 -2 -10 -4 -10 -3 0 -8 5 -11 10 -3 6 -1 10 4 10 6 0 11 -4 11 -10z
m-100 -11 c0 -5 -4 -9 -10 -9 -5 0 -10 -5 -10 -11 0 -7 12 -10 30 -7 24 4 27
2 19 -9 -13 -15 -46 -17 -51 -3 -5 15 -79 25 -87 12 -4 -7 -12 -8 -21 -2 -20
12 -10 19 41 29 59 10 89 10 89 0z m430 -14 c32 -17 40 -35 15 -35 -19 0 -65
29 -65 41 0 13 17 11 50 -6z m-1850 -5 c0 -5 -16 -10 -35 -10 -19 0 -35 -4
-35 -10 0 -5 -4 -10 -10 -10 -20 0 -9 29 13 33 42 8 67 7 67 -3z m-495 -30
c-3 -5 -15 -10 -26 -10 -11 0 -17 5 -14 10 3 6 15 10 26 10 11 0 17 -4 14 -10z
m2140 -9 c3 -5 1 -12 -5 -16 -5 -3 -10 1 -10 9 0 18 6 21 15 7z m-83 -80 c-9
-5 -6 -14 10 -30 29 -32 14 -55 -40 -59 -33 -2 -44 1 -54 17 -13 22 -38 29
-38 11 0 -5 -5 -10 -11 -10 -7 0 -8 7 -3 18 4 9 7 27 7 40 -1 26 0 26 43 10
18 -6 35 -19 38 -27 3 -9 4 -1 2 17 -2 25 1 32 12 27 9 -3 16 3 20 17 l5 22
11 -23 c7 -16 6 -25 -2 -30z m58 35 c0 -2 -7 -6 -15 -10 -8 -3 -15 -1 -15 4 0
6 7 10 15 10 8 0 15 -2 15 -4z m-240 -62 c0 -20 7 -42 15 -50 21 -21 19 -44
-4 -44 -31 0 -92 30 -85 41 4 8 10 7 16 -2 6 -10 7 -7 3 9 -5 16 -2 22 9 22 9
0 16 7 16 16 0 8 -4 13 -10 9 -10 -6 -50 15 -50 27 0 7 69 16 83 10 4 -2 7
-19 7 -38z m-103 20 c-3 -3 -12 -4 -19 -1 -8 3 -5 6 6 6 11 1 17 -2 13 -5z
m850 -20 c-3 -3 -12 -4 -19 -1 -8 3 -5 6 6 6 11 1 17 -2 13 -5z"/>
<path d="M1180 2352 c0 -5 7 -15 15 -22 8 -7 15 -9 15 -6 0 4 -7 14 -15 22 -8
9 -15 11 -15 6z"/>
<path d="M1295 2190 c-3 -5 1 -10 9 -10 9 0 16 5 16 10 0 6 -4 10 -9 10 -6 0
-13 -4 -16 -10z"/>
<path d="M1260 1920 c0 -5 5 -10 10 -10 6 0 10 5 10 10 0 6 -4 10 -10 10 -5 0
-10 -4 -10 -10z"/>
<path d="M1362 2115 c0 -16 2 -22 5 -12 2 9 2 23 0 30 -3 6 -5 -1 -5 -18z"/>
<path d="M1871 1795 c-7 -20 -19 -39 -28 -42 -11 -5 -12 -8 -2 -14 9 -5 18 5
31 33 10 23 17 45 16 50 -2 5 -9 -7 -17 -27z"/>
<path d="M1410 1834 c0 -8 5 -12 10 -9 6 3 10 10 10 16 0 5 -4 9 -10 9 -5 0
-10 -7 -10 -16z"/>
<path d="M2087 1833 c-4 -6 0 -16 8 -23 21 -17 28 -8 11 15 -8 11 -15 14 -19
8z"/>
<path d="M2060 1605 c-11 -13 -8 -19 14 -40 31 -29 42 -31 50 -9 4 11 -1 18
-14 21 -11 3 -18 9 -15 13 3 4 -1 13 -9 19 -10 9 -16 8 -26 -4z"/>
<path d="M1595 1420 c3 -5 8 -10 11 -10 2 0 4 5 4 10 0 6 -5 10 -11 10 -5 0
-7 -4 -4 -10z"/>
<path d="M1418 1028 c5 -5 16 -8 23 -6 8 3 3 7 -10 11 -17 4 -21 3 -13 -5z"/>
<path d="M2510 741 c0 -6 4 -13 10 -16 6 -3 7 1 4 9 -7 18 -14 21 -14 7z"/>
<path d="M2548 693 c7 -3 16 -2 19 1 4 3 -2 6 -13 5 -11 0 -14 -3 -6 -6z"/>
<path d="M2467 683 c-9 -14 2 -43 15 -43 5 0 6 5 3 10 -3 6 1 10 9 10 8 0 18
5 22 12 5 7 0 9 -14 6 -12 -3 -23 -1 -25 5 -2 8 -5 8 -10 0z"/>
<path d="M2582 643 c-10 -4 -8 -8 5 -18 17 -13 43 -4 43 14 0 8 -30 10 -48 4z"/>
<path d="M2000 950 c0 -5 15 -16 34 -24 19 -8 38 -22 44 -31 5 -11 12 -14 16
-7 11 18 -4 38 -40 55 -40 19 -54 21 -54 7z"/>
<path d="M1640 941 c0 -5 9 -7 20 -4 11 3 20 7 20 9 0 2 -9 4 -20 4 -11 0 -20
-4 -20 -9z"/>
<path d="M1121 894 c0 -11 3 -14 6 -6 3 7 2 16 -1 19 -3 4 -6 -2 -5 -13z"/>
<path d="M1280 895 c0 -8 4 -15 10 -15 5 0 7 7 4 15 -4 8 -8 15 -10 15 -2 0
-4 -7 -4 -15z"/>
<path d="M1170 890 c0 -5 7 -7 15 -4 8 4 15 8 15 10 0 2 -7 4 -15 4 -8 0 -15
-4 -15 -10z"/>
<path d="M2021 891 c-10 -7 -7 -9 12 -8 15 1 27 5 27 10 0 10 -22 9 -39 -2z"/>
<path d="M1978 883 c7 -3 16 -2 19 1 4 3 -2 6 -13 5 -11 0 -14 -3 -6 -6z"/>
<path d="M1215 859 c-13 -5 -15 -8 -5 -8 8 -1 25 -4 38 -7 12 -4 22 -2 22 4 0
14 -32 20 -55 11z"/>
<path d="M1370 815 c0 -8 0 -17 0 -20 0 -16 14 -6 16 13 2 12 -1 22 -6 22 -6
0 -10 -7 -10 -15z"/>
<path d="M2150 784 c0 -8 5 -12 10 -9 6 4 8 11 5 16 -9 14 -15 11 -15 -7z"/>
<path d="M1568 783 c6 -2 18 -2 25 0 6 3 1 5 -13 5 -14 0 -19 -2 -12 -5z"/>
<path d="M1412 738 c5 -15 88 -18 88 -3 0 6 -13 10 -28 10 -15 0 -30 -4 -34
-10 -5 -6 -8 -5 -8 3 0 6 -5 12 -11 12 -6 0 -9 -6 -7 -12z"/>
<path d="M1495 700 c-3 -5 1 -10 9 -10 9 0 16 5 16 10 0 6 -4 10 -9 10 -6 0
-13 -4 -16 -10z"/>
<path d="M1625 640 c-19 -8 -19 -9 3 -9 12 -1 22 4 22 9 0 6 -1 10 -2 9 -2 0
-12 -4 -23 -9z"/>
<path d="M1728 643 c7 -3 16 -2 19 1 4 3 -2 6 -13 5 -11 0 -14 -3 -6 -6z"/>
<path d="M1788 643 c7 -3 16 -2 19 1 4 3 -2 6 -13 5 -11 0 -14 -3 -6 -6z"/>
<path d="M1685 630 c3 -5 13 -10 21 -10 8 0 12 5 9 10 -3 6 -13 10 -21 10 -8
0 -12 -4 -9 -10z"/>
<path d="M1821 623 c-11 -13 -11 -17 1 -29 21 -21 42 3 25 27 -11 14 -14 14
-26 2z"/>
<path d="M1488 618 c9 -9 15 -9 24 0 9 9 7 12 -12 12 -19 0 -21 -3 -12 -12z"/>
<path d="M1780 584 c0 -8 5 -12 10 -9 6 4 8 11 5 16 -9 14 -15 11 -15 -7z"/>
<path d="M1675 580 c-3 -5 -2 -10 4 -10 5 0 13 5 16 10 3 6 2 10 -4 10 -5 0
-13 -4 -16 -10z"/>
<path d="M1700 549 c0 -5 9 -9 20 -9 11 0 20 2 20 4 0 2 -9 6 -20 9 -11 3 -20
1 -20 -4z"/>
<path d="M1755 440 c-3 -5 1 -10 9 -10 8 0 18 5 21 10 3 6 -1 10 -9 10 -8 0
-18 -4 -21 -10z"/>
<path d="M1761 2812 c-1 -7 -6 -10 -13 -6 -7 4 -8 3 -4 -4 9 -15 36 -15 56 -1
12 9 11 10 -7 6 -12 -3 -24 0 -27 7 -3 7 -5 7 -5 -2z"/>
<path d="M1847 2814 c-8 -8 1 -24 14 -24 5 0 9 7 9 15 0 15 -12 20 -23 9z"/>
<path d="M1691 2786 c-10 -12 -8 -13 9 -9 25 7 37 23 17 23 -8 0 -20 -6 -26
-14z"/>
<path d="M1708 2759 c-9 -6 -7 -8 7 -7 27 1 49 -5 57 -17 10 -14 18 -2 9 14
-10 15 -54 21 -73 10z"/>
<path d="M1830 2749 c0 -10 5 -21 11 -25 13 -8 29 14 23 31 -7 18 -34 14 -34
-6z"/>
<path d="M1730 2725 c0 -8 4 -15 10 -15 5 0 9 -8 7 -17 -3 -28 17 -26 25 2 5
19 2 28 -12 35 -25 13 -30 13 -30 -5z"/>
<path d="M2811 2729 c3 -18 -10 -67 -28 -101 -7 -16 -9 -28 -4 -28 5 0 14 15
21 33 6 17 16 40 21 49 12 23 11 45 -2 53 -6 4 -9 1 -8 -6z"/>
<path d="M113 2681 c-15 -14 -23 -17 -32 -8 -8 8 -11 7 -11 -5 0 -12 -10 -18
-33 -20 l-32 -3 -2 -147 c-2 -98 1 -148 8 -148 5 0 8 4 4 9 -8 14 24 41 49 41
13 0 31 -10 42 -21 19 -21 19 -22 -3 -15 -18 6 -22 4 -17 -7 3 -8 -2 -17 -11
-21 -9 -3 -14 -2 -11 2 2 4 -5 8 -16 8 -18 0 -17 -3 7 -24 31 -26 26 -36 -25
-50 -19 -6 -28 -11 -19 -11 9 -1 19 -7 22 -15 4 -10 0 -12 -14 -9 -17 5 -19 0
-19 -43 0 -35 3 -45 10 -34 8 12 10 11 10 -7 0 -13 -5 -23 -10 -23 -7 0 -10
-45 -8 -127 l3 -127 32 -19 c18 -10 40 -17 50 -15 19 3 12 12 -42 56 -23 20
-9 31 30 25 30 -5 34 -3 29 11 -3 9 -14 16 -23 17 -9 0 0 8 19 17 31 14 33 16
13 20 -13 2 -23 10 -23 18 0 8 -7 14 -15 14 -8 0 -15 5 -15 11 0 5 4 8 9 4 6
-3 15 3 20 14 19 35 14 44 -24 37 -39 -8 -42 -2 -21 40 8 15 13 31 10 36 -3 4
-1 8 5 8 5 0 13 -4 16 -10 11 -17 25 -11 35 15 5 14 14 25 20 25 12 0 34 -19
41 -35 2 -5 12 -11 22 -12 10 -2 16 1 13 6 -3 5 4 11 15 14 12 3 18 10 14 16
-3 6 0 11 8 11 8 0 29 3 46 6 25 5 31 3 31 -11 0 -14 -3 -15 -15 -5 -10 8 -15
9 -15 2 0 -6 -7 -9 -15 -6 -20 8 -19 -10 2 -27 13 -11 17 -11 21 -1 3 10 7 10
18 2 10 -9 15 -6 21 17 4 15 6 36 5 45 -2 9 6 22 17 27 26 15 42 14 39 -1 -2
-7 6 -13 17 -13 14 0 19 -7 18 -20 -1 -17 0 -18 10 -5 7 8 19 16 27 18 8 2 21
11 29 20 12 15 13 15 8 -5 -3 -13 1 -24 9 -27 8 -3 19 -17 24 -31 5 -14 16
-25 25 -25 20 0 19 9 -2 27 -17 13 -16 14 7 9 23 -5 26 -2 25 22 -2 43 -36
112 -55 112 -21 0 -78 62 -62 68 26 8 11 24 -18 18 -17 -3 -29 -2 -26 2 3 5
-9 9 -26 9 -17 0 -36 6 -42 15 -12 16 -80 23 -71 7 4 -5 0 -9 -7 -9 -9 0 -9
-3 2 -10 8 -5 15 -15 15 -21 0 -7 15 -17 33 -21 18 -5 30 -13 27 -18 -4 -6 3
-10 15 -10 12 0 18 -4 15 -10 -9 -15 -67 -11 -89 5 -11 8 -16 15 -12 15 17 0
-49 50 -80 60 -29 10 -32 14 -24 31 7 13 7 19 0 19 -17 0 -11 14 12 29 19 12
23 11 33 -3 7 -9 17 -16 24 -16 14 0 14 -23 0 -37 -6 -6 -9 -17 -6 -25 3 -8
10 0 18 20 13 32 23 37 67 33 12 -1 22 3 22 9 0 5 5 10 10 10 6 0 10 -6 10
-14 0 -8 12 -17 27 -21 15 -3 31 -11 34 -17 5 -8 13 -6 24 5 9 10 29 17 45 17
16 0 32 5 35 10 4 6 -5 10 -19 10 -33 0 -34 16 -1 24 38 10 31 29 -9 24 -33
-4 -34 -3 -29 28 7 40 -13 55 -27 20 -12 -32 -26 -33 -34 -3 -7 21 -7 21 -15
2 -7 -18 -9 -17 -24 10 l-17 30 6 -27 c6 -26 4 -28 -23 -28 -16 0 -38 -7 -49
-15 -24 -18 -38 -19 -27 -2 4 6 6 22 4 35 -1 12 3 22 9 22 8 0 8 6 -1 21 -9
17 -13 19 -20 8 -6 -11 -12 -9 -30 9 -18 20 -27 22 -62 17 -37 -7 -40 -6 -34
14 6 26 -3 27 -30 2z m53 -62 c-6 9 -5 12 4 9 7 -2 14 -12 16 -22 3 -20 1 -19
34 -33 l25 -11 -25 -10 c-21 -8 -26 -6 -34 12 -8 21 -8 21 -16 1 -7 -17 -9
-17 -9 -2 -1 9 -5 17 -10 17 -5 0 -8 11 -8 25 0 22 2 24 15 13 13 -11 14 -11
8 1z m-66 -95 c0 -29 -19 -53 -38 -46 -16 5 -15 18 4 47 21 32 34 32 34 -1z
m-50 -60 c0 -2 -7 -4 -15 -4 -8 0 -15 4 -15 10 0 5 7 7 15 4 8 -4 15 -8 15
-10z m220 -160 c0 -17 -16 -19 -26 -3 -5 8 -8 8 -14 0 -3 -7 -14 -9 -23 -5
-29 11 -19 20 23 21 29 2 40 -2 40 -13z m152 -14 c-8 -21 -9 -22 -16 -5 -4 11
-2 22 6 26 17 11 20 6 10 -21z m-325 -4 c-3 -8 -1 -16 6 -19 7 -2 -2 -4 -20
-4 l-31 0 21 18 c27 22 31 23 24 5z m98 -2 c6 0 16 -2 23 -2 6 -1 12 -7 12
-13 0 -8 -5 -8 -15 1 -12 10 -19 9 -37 -2 -14 -9 -31 -12 -43 -8 -18 7 -18 8
7 15 16 4 25 12 21 18 -4 6 -1 7 8 1 8 -5 19 -9 24 -10z m140 -5 c10 -15 -1
-23 -20 -15 -9 3 -13 10 -10 16 8 13 22 13 30 -1z m-51 -14 c45 -19 46 -26 4
-21 -18 3 -36 5 -40 5 -8 1 -12 31 -4 31 2 0 20 -7 40 -15z m-35 -39 c9 -11 6
-12 -14 -8 -17 3 -27 -1 -31 -12 -9 -23 -24 -20 -24 5 0 11 4 18 8 15 4 -2 14
-1 22 5 20 12 26 11 39 -5z"/>
<path d="M1716 2683 c-6 -14 -5 -15 5 -6 7 7 10 15 7 18 -3 3 -9 -2 -12 -12z"/>
<path d="M2840 2650 c0 -5 5 -10 11 -10 5 0 7 5 4 10 -3 6 -8 10 -11 10 -2 0
-4 -4 -4 -10z"/>
<path d="M1584 2605 c11 -8 22 -12 25 -9 6 6 -19 24 -34 24 -5 -1 -1 -7 9 -15z"/>
<path d="M1590 2551 c0 -5 5 -13 10 -16 6 -3 10 -2 10 4 0 5 -4 13 -10 16 -5
3 -10 2 -10 -4z"/>
<path d="M1570 2516 c0 -9 5 -16 10 -16 6 0 10 4 10 9 0 6 -4 13 -10 16 -5 3
-10 -1 -10 -9z"/>
<path d="M1881 2514 c0 -11 3 -14 6 -6 3 7 2 16 -1 19 -3 4 -6 -2 -5 -13z"/>
<path d="M1604 2478 l-19 -23 23 19 c21 18 27 26 19 26 -2 0 -12 -10 -23 -22z"/>
<path d="M2 2310 c0 -19 2 -30 4 -23 3 7 12 9 20 6 8 -3 14 1 14 11 0 9 -6 16
-14 16 -8 0 -17 6 -19 13 -3 6 -5 -4 -5 -23z"/>
<path d="M1615 2280 c-10 -16 7 -31 23 -21 10 6 10 10 -2 20 -10 9 -16 9 -21
1z"/>
<path d="M1548 2243 c12 -2 30 -2 40 0 9 3 -1 5 -23 4 -22 0 -30 -2 -17 -4z"/>
<path d="M1600 2209 c0 -12 5 -16 15 -13 8 4 15 12 15 18 0 7 -7 13 -15 13 -8
0 -15 -8 -15 -18z"/>
<path d="M461 2194 c0 -11 3 -14 6 -6 3 7 2 16 -1 19 -3 4 -6 -2 -5 -13z"/>
<path d="M1551 2194 c0 -11 3 -14 6 -6 3 7 2 16 -1 19 -3 4 -6 -2 -5 -13z"/>
<path d="M400 2165 c-7 -9 -11 -17 -9 -20 3 -2 10 5 17 15 14 24 10 26 -8 5z"/>
<path d="M1881 2137 c6 -13 17 -24 25 -24 21 0 17 13 -11 31 -24 16 -25 16
-14 -7z"/>
<path d="M1560 2109 c0 -5 5 -7 10 -4 6 3 10 8 10 11 0 2 -4 4 -10 4 -5 0 -10
-5 -10 -11z"/>
<path d="M510 2060 c0 -8 5 -22 10 -30 9 -13 10 -13 10 0 0 8 -5 22 -10 30 -9
13 -10 13 -10 0z"/>
<path d="M390 2031 c0 -5 5 -13 10 -16 6 -3 10 -2 10 4 0 5 -4 13 -10 16 -5 3
-10 2 -10 -4z"/>
<path d="M1634 2022 c-6 -4 -15 -18 -19 -30 -6 -19 -4 -23 10 -20 24 4 43 34
30 47 -6 6 -15 7 -21 3z"/>
<path d="M174 1969 c-12 -4 -25 -12 -28 -17 -10 -16 21 -22 39 -8 24 17 16 36
-11 25z"/>
<path d="M846 1895 c-9 -9 -16 -22 -16 -30 0 -7 -3 -20 -6 -29 -5 -14 -2 -14
26 1 25 12 34 13 40 3 6 -10 9 -9 13 1 3 9 6 10 6 2 1 -6 -3 -15 -9 -18 -18
-11 -10 -23 12 -17 32 8 60 40 53 62 -6 18 -60 38 -72 26 -4 -3 -12 -1 -19 4
-8 8 -17 6 -28 -5z"/>
<path d="M173 1885 c-19 -21 -12 -95 9 -95 23 0 34 20 17 31 -10 6 -11 11 -3
19 8 8 15 3 24 -20 12 -30 35 -55 24 -27 -3 8 -1 18 4 21 5 3 12 -3 15 -14 7
-26 33 -26 33 0 0 11 -4 20 -8 20 -4 0 -8 7 -8 15 0 7 -6 18 -13 22 -8 4 -16
16 -20 26 -8 21 -56 23 -74 2z"/>
<path d="M378 1808 c5 -7 12 -24 14 -38 2 -18 10 -26 27 -28 24 -4 53 -25 51
-37 -1 -4 1 -9 4 -12 13 -13 5 21 -8 36 -7 9 -17 27 -21 41 -7 22 -6 23 9 11
14 -11 16 -11 16 2 0 21 -31 37 -71 37 -24 0 -29 -3 -21 -12z"/>
<path d="M842 1808 c-14 -14 -16 -28 -3 -28 9 0 24 30 18 36 -2 2 -9 -2 -15
-8z"/>
<path d="M0 1770 c0 -5 7 -10 16 -10 8 0 12 5 9 10 -3 6 -10 10 -16 10 -5 0
-9 -4 -9 -10z"/>
<path d="M3900 1711 c-18 -4 -25 -13 -26 -31 0 -14 -4 -35 -8 -47 -4 -15 -3
-23 3 -23 6 0 11 9 11 20 0 11 4 20 10 20 5 0 7 -7 4 -15 -4 -8 -1 -15 6 -15
6 0 14 9 17 20 4 16 8 18 19 9 18 -15 18 -33 0 -26 -24 9 -29 -26 -7 -44 11
-9 18 -19 15 -21 -2 -3 -7 -29 -10 -59 -6 -57 -9 -64 -26 -64 -14 0 -17 -66
-5 -83 8 -10 14 -9 29 5 15 13 17 25 12 60 -4 25 -2 49 4 56 5 6 9 34 8 62 -2
48 12 84 25 63 4 -6 16 -7 27 -4 32 10 25 78 -10 105 -17 14 -28 17 -30 10 -3
-8 -10 -9 -23 -2 -11 5 -31 7 -45 4z m80 -75 c0 -3 -4 -8 -10 -11 -5 -3 -10
-1 -10 4 0 6 5 11 10 11 6 0 10 -2 10 -4z"/>
<path d="M4317 1506 c-21 -6 -35 -15 -31 -19 4 -4 0 -7 -9 -7 -10 0 -14 -5
-11 -15 7 -18 -7 -20 -24 -3 -9 9 -9 15 1 26 10 13 8 14 -13 7 -14 -4 -28 -12
-32 -18 -4 -7 -11 -7 -20 1 -9 7 -19 8 -28 2 -8 -6 -28 -10 -43 -10 -15 0 -39
-7 -52 -16 -27 -18 -34 -37 -10 -28 8 4 21 1 28 -5 9 -7 24 -8 45 -2 19 6 34
6 37 0 4 -5 -2 -10 -12 -11 -10 0 -22 -2 -28 -3 -5 -2 -20 -3 -33 -4 -14 -1
-22 -6 -19 -13 2 -9 25 -13 63 -13 51 0 59 -2 56 -18 -4 -24 46 -43 71 -27 31
19 69 31 62 20 -4 -6 -1 -17 5 -25 7 -8 9 -15 4 -16 -5 -1 6 -5 25 -9 43 -10
185 -2 189 11 2 5 10 9 17 9 8 0 17 5 21 12 5 8 1 9 -12 4 -14 -5 -16 -4 -8 4
7 7 56 12 128 12 114 1 116 2 116 24 0 12 -6 25 -12 27 -10 4 -10 6 0 6 6 1
12 8 12 17 0 12 -9 14 -42 10 -24 -3 -47 -5 -52 -5 -4 -1 -5 -8 -2 -17 4 -10
1 -14 -6 -11 -7 2 -12 14 -11 26 2 12 -1 20 -6 16 -5 -3 -12 4 -16 15 -10 31
-28 24 -21 -7 l7 -28 -18 22 c-13 16 -24 21 -40 17 -24 -6 -33 -37 -10 -32 16
3 57 -20 57 -32 0 -6 -7 -10 -15 -10 -8 0 -15 6 -15 14 0 17 -93 33 -98 17 -5
-14 -49 -14 -57 -1 -4 6 6 11 22 11 16 1 21 3 11 6 -10 2 -15 10 -11 19 4 10
0 15 -8 14 -34 -5 -51 0 -45 15 3 9 0 15 -8 15 -8 0 -17 -7 -20 -16 -4 -9 -9
-14 -13 -10 -3 3 2 15 12 26 18 20 18 20 -11 19 -16 -1 -46 -6 -67 -13z m40
-53 c2 -6 -3 -13 -11 -16 -10 -4 -14 0 -13 14 1 20 18 21 24 2z m-107 -13 c0
-5 -4 -10 -10 -10 -5 0 -10 5 -10 10 0 6 5 10 10 10 6 0 10 -4 10 -10z m160 6
c0 -3 -4 -8 -10 -11 -5 -3 -10 -1 -10 4 0 6 5 11 10 11 6 0 10 -2 10 -4z m264
-67 c-31 -12 -39 -10 -19 5 11 8 24 12 29 8 5 -3 1 -9 -10 -13z"/>
<path d="M3736 1441 c-3 -5 1 -22 9 -37 11 -21 15 -24 15 -11 0 11 4 15 12 11
8 -5 9 -2 5 10 -4 10 -7 22 -7 27 0 12 -27 12 -34 0z"/>
<path d="M3961 1408 c-1 -10 2 -18 7 -19 4 0 15 -2 25 -4 9 -2 17 1 17 6 0 5
-9 9 -19 9 -11 0 -22 6 -24 13 -3 7 -6 5 -6 -5z"/>
<path d="M40 1354 c-7 -17 -15 -24 -25 -20 -9 3 -15 0 -15 -8 0 -8 6 -16 14
-19 15 -6 69 50 60 64 -10 16 -24 9 -34 -17z"/>
<path d="M3766 1357 c3 -10 9 -15 12 -12 3 3 0 11 -7 18 -10 9 -11 8 -5 -6z"/>
<path d="M3786 1310 c7 -28 12 -35 18 -29 2 2 -2 15 -10 29 l-15 25 7 -25z"/>
<path d="M3882 1318 c-14 -14 -16 -28 -3 -28 9 0 24 30 18 36 -2 2 -9 -2 -15
-8z"/>
<path d="M4581 1295 c15 -16 49 -11 49 6 0 13 -17 11 -24 -3 -5 -10 -7 -10
-12 0 -3 6 -11 12 -17 12 -7 0 -5 -6 4 -15z"/>
<path d="M4238 1283 c6 -2 18 -2 25 0 6 3 1 5 -13 5 -14 0 -19 -2 -12 -5z"/>
<path d="M4668 1278 c-2 -5 -28 -13 -58 -18 -41 -5 -47 -8 -25 -11 17 -1 40
-2 53 -1 20 1 22 -2 12 -14 -10 -11 -9 -14 4 -14 9 0 16 6 16 14 0 8 9 21 20
29 21 14 21 14 1 20 -11 3 -22 0 -23 -5z"/>
<path d="M4495 1250 c-4 -6 -1 -17 5 -25 12 -15 0 -22 -14 -8 -3 4 -23 12 -43
19 -32 11 -40 11 -55 -3 -10 -9 -18 -21 -18 -26 0 -6 9 -2 21 9 19 17 22 18
33 2 7 -10 34 -20 64 -24 l52 -7 -11 32 c-12 35 -25 46 -34 31z"/>
<path d="M4530 1241 c0 -5 7 -11 14 -14 10 -4 13 -1 9 9 -6 15 -23 19 -23 5z"/>
<path d="M4340 1230 c0 -5 5 -10 10 -10 6 0 10 5 10 10 0 6 -4 10 -10 10 -5 0
-10 -4 -10 -10z"/>
<path d="M4560 1170 c-33 -7 -31 -7 18 -9 29 0 52 3 52 9 0 11 -17 11 -70 0z"/>
<path d="M4698 1173 c6 -2 18 -2 25 0 6 3 1 5 -13 5 -14 0 -19 -2 -12 -5z"/>
<path d="M3790 1160 c-12 -8 -11 -10 7 -10 12 0 25 5 28 10 8 13 -15 13 -35 0z"/>
<path d="M3928 1163 c7 -3 16 -2 19 1 4 3 -2 6 -13 5 -11 0 -14 -3 -6 -6z"/>
<path d="M3840 1149 c0 -5 5 -7 10 -4 6 3 10 8 10 11 0 2 -4 4 -10 4 -5 0 -10
-5 -10 -11z"/>
<path d="M3043 1115 c0 -11 8 -14 26 -11 38 6 38 7 16 16 -30 13 -42 12 -42
-5z"/>
<path d="M2932 1100 c-12 -5 -29 -7 -37 -4 -9 4 -15 0 -15 -9 0 -20 40 -30 47
-11 3 8 13 14 23 14 11 0 22 5 25 10 7 12 -12 12 -43 0z"/>
<path d="M2968 1073 c6 -2 18 -2 25 0 6 3 1 5 -13 5 -14 0 -19 -2 -12 -5z"/>
<path d="M4700 1061 c0 -5 -19 -11 -42 -15 -32 -5 -39 -9 -28 -16 10 -7 11
-10 3 -10 -7 0 -13 -5 -13 -11 0 -6 7 -8 15 -5 17 6 55 -13 55 -27 0 -5 -9 -6
-19 -2 -11 3 -22 1 -26 -5 -4 -7 -19 -9 -34 -6 -21 5 -23 4 -8 -4 9 -6 26 -8
37 -5 13 4 20 2 20 -7 0 -10 2 -10 9 1 9 14 78 8 114 -11 14 -7 17 -4 17 20 0
23 -6 30 -33 40 -18 7 -46 12 -61 12 -31 0 -31 21 0 30 23 6 30 30 9 30 -8 0
-15 -4 -15 -9z"/>
<path d="M4745 1060 c3 -5 11 -10 16 -10 6 0 7 5 4 10 -3 6 -11 10 -16 10 -6
0 -7 -4 -4 -10z"/>
<path d="M4791 1044 c0 -11 3 -14 6 -6 3 7 2 16 -1 19 -3 4 -6 -2 -5 -13z"/>
<path d="M4535 1040 c-4 -6 6 -10 22 -10 22 0 25 2 13 10 -19 12 -27 12 -35 0z"/>
<path d="M3395 1030 c3 -5 14 -10 23 -10 15 0 15 2 2 10 -20 13 -33 13 -25 0z"/>
<path d="M3528 1033 c7 -3 16 -2 19 1 4 3 -2 6 -13 5 -11 0 -14 -3 -6 -6z"/>
<path d="M4695 931 c-8 -14 10 -22 30 -15 13 5 14 8 3 15 -17 11 -26 11 -33 0z"/>
<path d="M4480 910 c0 -5 7 -10 16 -10 8 0 12 5 9 10 -3 6 -10 10 -16 10 -5 0
-9 -4 -9 -10z"/>
<path d="M4450 895 c0 -10 9 -15 27 -15 29 0 29 2 -4 19 -19 10 -23 9 -23 -4z"/>
<path d="M4588 903 c7 -3 16 -2 19 1 4 3 -2 6 -13 5 -11 0 -14 -3 -6 -6z"/>
<path d="M4720 902 c0 -5 18 -14 40 -20 22 -5 40 -6 40 -2 0 8 -8 11 -62 26
-10 3 -18 1 -18 -4z"/>
<path d="M4100 870 c0 -5 5 -10 10 -10 6 0 10 5 10 10 0 6 -4 10 -10 10 -5 0
-10 -4 -10 -10z"/>
<path d="M4545 860 c3 -5 8 -10 11 -10 2 0 4 5 4 10 0 6 -5 10 -11 10 -5 0 -7
-4 -4 -10z"/>
<path d="M4393 847 c5 -15 37 -22 37 -9 0 5 -9 12 -21 15 -13 3 -19 1 -16 -6z"/>
<path d="M3765 710 c3 -5 10 -10 16 -10 5 0 9 5 9 10 0 6 -7 10 -16 10 -8 0
-12 -4 -9 -10z"/>
<path d="M3805 700 c3 -5 13 -10 21 -10 8 0 14 5 14 10 0 6 -9 10 -21 10 -11
0 -17 -4 -14 -10z"/>
<path d="M3785 670 c-3 -5 1 -10 10 -10 9 0 13 5 10 10 -3 6 -8 10 -10 10 -2
0 -7 -4 -10 -10z"/>
<path d="M3590 650 c-13 -8 -12 -10 3 -10 9 0 17 5 17 10 0 12 -1 12 -20 0z"/>
<path d="M3683 653 c15 -2 37 -2 50 0 12 2 0 4 -28 4 -27 0 -38 -2 -22 -4z"/>
<path d="M3300 630 c0 -5 12 -10 26 -10 14 0 23 4 19 10 -3 6 -15 10 -26 10
-10 0 -19 -4 -19 -10z"/>
<path d="M3116 621 c-4 -5 -2 -12 3 -15 5 -4 12 -2 15 3 4 5 2 12 -3 15 -5 4
-12 2 -15 -3z"/>
<path d="M3150 623 c0 -5 5 -15 10 -23 9 -13 11 -13 19 0 5 8 7 18 5 22 -6 10
-34 11 -34 1z"/>
<path d="M3205 620 c-4 -6 10 -10 34 -10 23 0 41 3 41 8 0 11 -68 13 -75 2z"/>
<path d="M3902 621 c-11 -7 -11 -9 2 -14 10 -4 16 -1 16 8 0 17 -1 17 -18 6z"/>
<path d="M3052 608 c5 -15 28 -18 29 -3 0 6 -7 12 -17 13 -10 3 -15 -1 -12
-10z"/>
<path d="M3195 590 c-3 -5 1 -10 9 -10 9 0 16 5 16 10 0 6 -4 10 -9 10 -6 0
-13 -4 -16 -10z"/>
<path d="M2968 563 c7 -3 16 -2 19 1 4 3 -2 6 -13 5 -11 0 -14 -3 -6 -6z"/>
<path d="M3628 553 c7 -3 16 -2 19 1 4 3 -2 6 -13 5 -11 0 -14 -3 -6 -6z"/>
<path d="M4130 551 c0 -5 5 -13 10 -16 6 -3 10 -2 10 4 0 5 -4 13 -10 16 -5 3
-10 2 -10 -4z"/>
<path d="M3909 537 c6 -8 8 -16 6 -19 -6 -6 39 -26 73 -33 34 -6 26 3 -23 25
-25 11 -45 25 -45 30 0 6 -5 10 -11 10 -8 0 -9 -4 0 -13z"/>
<path d="M2950 530 c0 -5 9 -10 21 -10 11 0 17 5 14 10 -3 6 -13 10 -21 10 -8
0 -14 -4 -14 -10z"/>
<path d="M3100 510 c0 -5 13 -10 29 -10 17 0 33 5 36 10 4 6 -8 10 -29 10 -20
0 -36 -4 -36 -10z"/>
<path d="M2945 495 c-22 -7 -32 -13 -23 -14 9 -1 18 -7 21 -13 3 -10 7 -10 19
-1 8 7 36 16 62 19 25 4 46 11 46 15 0 13 -79 9 -125 -6z"/>
<path d="M3402 493 c3 -14 15 -19 62 -21 l58 -3 -18 -21 c-19 -21 -19 -21 3
-16 13 4 26 2 29 -3 3 -5 11 -9 17 -9 7 1 6 5 -4 13 -8 7 -18 20 -22 30 -3 9
-17 18 -29 19 -37 2 -42 3 -65 16 -29 16 -35 15 -31 -5z"/>
<path d="M3140 455 c0 -10 7 -15 18 -13 21 4 19 22 -2 26 -10 2 -16 -3 -16
-13z"/>
<path d="M3260 460 c0 -5 5 -10 10 -10 6 0 10 5 10 10 0 6 -4 10 -10 10 -5 0
-10 -4 -10 -10z"/>
<path d="M3423 443 c-13 -2 -23 -9 -23 -14 0 -13 13 -11 36 6 10 8 17 14 14
13 -3 0 -15 -3 -27 -5z"/>
<path d="M3360 430 c0 -6 7 -10 15 -10 8 0 15 2 15 4 0 2 -7 6 -15 10 -8 3
-15 1 -15 -4z"/>
<path d="M3478 403 c7 -3 16 -2 19 1 4 3 -2 6 -13 5 -11 0 -14 -3 -6 -6z"/>
<path d="M3925 400 c-3 -5 1 -10 9 -10 9 0 16 5 16 10 0 6 -4 10 -9 10 -6 0
-13 -4 -16 -10z"/>
<path d="M3520 389 c0 -5 5 -7 10 -4 6 3 10 8 10 11 0 2 -4 4 -10 4 -5 0 -10
-5 -10 -11z"/>
<path d="M4152 310 c0 -14 2 -19 5 -12 2 6 2 18 0 25 -3 6 -5 1 -5 -13z"/>
<path d="M3778 313 c7 -3 16 -2 19 1 4 3 -2 6 -13 5 -11 0 -14 -3 -6 -6z"/>
<path d="M3928 203 c7 -3 16 -2 19 1 4 3 -2 6 -13 5 -11 0 -14 -3 -6 -6z"/>
<path d="M3695 160 c-18 -8 -17 -9 8 -9 15 -1 27 4 27 9 0 12 -8 12 -35 0z"/>
<path d="M4000 140 c0 -5 5 -10 10 -10 6 0 10 5 10 10 0 6 -4 10 -10 10 -5 0
-10 -4 -10 -10z"/>
</g>
</svg>
